<svg width="39" height="38" viewBox="0 0 39 38" fill="none" xmlns="http://www.w3.org/2000/svg">
<mask id="mask0_245_837" style="mask-type:alpha" maskUnits="userSpaceOnUse" x="0" y="0" width="39" height="38">
<rect x="0.666748" width="38" height="38" fill="#D9D9D9"/>
</mask>
<g mask="url(#mask0_245_837)">
<path d="M3.83346 33.25C3.38484 33.25 3.0088 33.0983 2.70533 32.7948C2.40186 32.4913 2.25012 32.1153 2.25012 31.6667C2.25012 31.2181 2.40186 30.842 2.70533 30.5385C3.0088 30.2351 3.38484 30.0833 3.83346 30.0833H35.5001C35.9487 30.0833 36.3248 30.2351 36.6282 30.5385C36.9317 30.842 37.0835 31.2181 37.0835 31.6667C37.0835 32.1153 36.9317 32.4913 36.6282 32.7948C36.3248 33.0983 35.9487 33.25 35.5001 33.25H3.83346ZM7.00012 28.5C6.12929 28.5 5.3838 28.1899 4.76366 27.5698C4.14352 26.9497 3.83346 26.2042 3.83346 25.3333V7.91667C3.83346 7.04583 4.14352 6.30035 4.76366 5.68021C5.3838 5.06007 6.12929 4.75 7.00012 4.75H32.3335C33.2043 4.75 33.9498 5.06007 34.5699 5.68021C35.1901 6.30035 35.5001 7.04583 35.5001 7.91667V25.3333C35.5001 26.2042 35.1901 26.9497 34.5699 27.5698C33.9498 28.1899 33.2043 28.5 32.3335 28.5H7.00012ZM7.00012 25.3333H32.3335V7.91667H7.00012V25.3333Z" fill="#FF0000"/>
</g>
</svg>
