<svg width="302" height="236" viewBox="0 0 302 236" fill="none" xmlns="http://www.w3.org/2000/svg">
<g clip-path="url(#clip0_245_578)">
<path d="M253 124.231L252.173 129.642H229.233L233.904 99.4035H242.199L238.331 124.231H253ZM229.501 99.4035L224.636 129.642H216.413L221.279 99.4035H229.501ZM216.924 99.4035L214.078 117.893C213.778 120.339 212.822 122.665 211.305 124.634C209.85 126.446 207.927 127.846 205.734 128.693C203.261 129.629 200.626 130.088 197.974 130.046C194.791 130.188 191.621 129.551 188.754 128.194C186.724 127.243 185.03 125.722 183.889 123.827C183.022 122.325 182.546 120.638 182.503 118.914C182.522 117.401 182.669 115.893 182.94 114.404L185.373 99.4035H193.547L191.114 115.211C190.965 115.994 190.892 116.789 190.895 117.585C190.848 119.09 191.387 120.557 192.403 121.691C193.162 122.323 194.046 122.797 195 123.082C195.954 123.368 196.958 123.46 197.95 123.352C199.203 123.369 200.448 123.159 201.623 122.735C202.729 122.34 203.692 121.639 204.396 120.718C205.254 119.591 205.799 118.266 205.977 116.873L208.799 99.4985L216.924 99.4035ZM146.232 99.4035L141.367 129.642H133.704L121.127 111.437L118.184 129.642H109.986L114.851 99.4035H122.538L135.139 117.585L138.034 99.4035H146.232ZM99.7446 118.7L98.212 107.117L92.6413 118.7H99.7446ZM109.743 129.642H101.18L100.304 122.949H90.5736L87.3139 129.642H78.97L95.2686 99.4035H103.953L109.743 129.642ZM87.4112 99.4035L73.01 114.76L82.5946 129.642H73.375L67.5366 120.48L59.0224 129.547H49L63.5958 114.167L54.0356 99.3086H63.1093L69.0205 108.375L77.5834 99.3086L87.4112 99.4035Z" fill="#050505"/>
<path d="M169.61 120.195C168.756 121.193 167.695 122.002 166.496 122.569C165.215 123.114 163.831 123.389 162.433 123.376C161.399 123.428 160.365 123.264 159.4 122.896C158.435 122.527 157.562 121.963 156.838 121.24C155.501 119.827 154.777 117.964 154.819 116.042C154.828 114.393 155.228 112.768 155.987 111.295C156.754 109.729 157.928 108.387 159.393 107.402C160.97 106.359 162.84 105.82 164.744 105.859C166.105 105.838 167.447 106.165 168.637 106.809C169.753 107.423 170.665 108.338 171.264 109.443C171.916 110.666 172.242 112.029 172.212 113.407C172.212 114.659 171.998 115.903 171.58 117.086C171.144 118.27 170.475 119.358 169.61 120.29V120.195ZM188.876 133.084C188.831 132.932 188.737 132.799 188.608 132.704C187.391 133.051 186.13 133.234 184.862 133.25C183.845 133.262 182.831 133.142 181.846 132.894C180.956 132.653 180.099 132.31 179.291 131.873C178.481 131.446 177.67 130.971 176.859 130.449C175.823 129.771 174.733 129.176 173.599 128.669C173.005 128.378 172.376 128.163 171.726 128.028C172.321 127.729 172.898 127.396 173.453 127.031C175.214 125.889 176.72 124.412 177.881 122.688C178.897 121.186 179.661 119.535 180.143 117.798C180.573 116.194 180.794 114.543 180.8 112.885C180.892 110.179 180.109 107.513 178.562 105.266C177.118 103.165 175.082 101.516 172.699 100.519C170.304 99.5048 167.72 98.9875 165.109 99C162.788 98.9924 160.481 99.3449 158.274 100.044C156.046 100.741 153.973 101.844 152.168 103.296C150.324 104.773 148.838 106.629 147.813 108.731C146.703 111.098 146.154 113.677 146.208 116.279C146.174 118.051 146.479 119.814 147.108 121.477C147.648 122.946 148.521 124.276 149.662 125.37C150.824 126.654 152.272 127.66 153.895 128.313C155.955 129.184 158.151 129.713 160.39 129.879H160.195C161.982 129.884 163.751 130.231 165.401 130.9C167.046 131.658 168.61 132.573 170.072 133.63C170.931 134.237 171.834 134.784 172.772 135.267C173.715 135.772 174.71 136.177 175.74 136.478C176.864 136.788 178.026 136.948 179.194 136.953C180.598 136.946 181.995 136.771 183.354 136.43C184.509 136.147 185.616 135.699 186.638 135.101C187.43 134.692 188.132 134.135 188.706 133.463C188.876 133.25 188.925 133.084 188.852 132.941" fill="#050505"/>
</g>
<rect x="1" y="1" width="300" height="234" stroke="#D9D9D9"/>
<defs>
<clipPath id="clip0_245_578">
<rect width="204" height="38" fill="white" transform="translate(49 99)"/>
</clipPath>
</defs>
</svg>
