<svg width="302" height="236" viewBox="0 0 302 236" fill="none" xmlns="http://www.w3.org/2000/svg">
<path fill-rule="evenodd" clip-rule="evenodd" d="M53 157.843H64.7574L102.831 92.2537L119.809 122.347H98.4728L92.5928 132.473H137.441L102.831 72L53 157.843Z" fill="#D52727"/>
<path d="M88.8669 157.778V156.127C88.4487 156.733 87.819 157.199 86.975 157.53C86.131 157.861 85.3223 158.026 84.5464 158.026C82.6394 158.026 80.9817 157.407 79.5709 156.167C78.16 154.929 77.4547 153.318 77.4547 151.336C77.4547 149.354 78.155 147.743 79.5558 146.505C80.9564 145.267 82.6191 144.646 84.5464 144.646C85.3199 144.646 86.121 144.796 86.9447 145.099C87.7686 145.403 88.4085 145.876 88.8669 146.518V144.921H92.5023V157.778H88.8669ZM82.3546 148.845C81.5887 149.497 81.2084 150.329 81.2084 151.336C81.2084 152.346 81.5913 153.175 82.3546 153.827C83.118 154.478 84.0173 154.804 85.0503 154.804C86.0832 154.804 86.9776 154.488 87.7308 153.854C88.4865 153.22 88.8619 152.381 88.8619 151.336C88.8619 150.271 88.479 149.427 87.7156 148.803C86.9499 148.179 86.0631 147.868 85.0477 147.868C84.0199 147.868 83.1205 148.194 82.3546 148.845Z" fill="black"/>
<path d="M100.189 140.02V144.921H103.139V147.62H100.189V157.778H96.5834V147.62H94.0515V144.921H96.5834V140.02H100.189Z" fill="black"/>
<path d="M108.323 150.923V157.778H104.688V137.928H108.323V146.903C108.621 146.187 109.213 145.633 110.097 145.237C110.981 144.844 111.83 144.646 112.644 144.646C114.433 144.646 115.813 145.169 116.786 146.214C117.758 147.262 118.247 148.73 118.247 150.619V157.778H114.612V150.785C114.612 149.903 114.319 149.206 113.732 148.692C113.145 148.179 112.455 147.921 111.661 147.921C110.767 147.921 109.989 148.164 109.324 148.65C108.656 149.139 108.323 149.895 108.323 150.923Z" fill="black"/>
<path d="M120.985 157.778V137.928H124.62V157.778H120.985Z" fill="black"/>
<path d="M140.948 151.309C140.948 151.677 140.928 152.063 140.887 152.464H130.281C130.4 153.308 130.813 153.977 131.518 154.473C132.223 154.969 133.093 155.217 134.126 155.217C134.861 155.217 135.546 155.075 136.181 154.791C136.816 154.508 137.295 154.1 137.612 153.566C138.048 153.787 138.973 154.245 140.383 154.942C139.786 155.989 138.902 156.768 137.731 157.282C136.559 157.796 135.277 158.054 133.886 158.054C131.861 158.054 130.15 157.425 128.762 156.167C127.371 154.909 126.676 153.291 126.676 151.309C126.676 149.327 127.371 147.72 128.762 146.49C130.153 145.26 131.861 144.646 133.886 144.646C135.912 144.646 137.595 145.26 138.937 146.49C140.278 147.72 140.948 149.327 140.948 151.309ZM130.251 150.181H137.403C137.265 149.319 136.877 148.647 136.242 148.171C135.604 147.695 134.831 147.455 133.916 147.455C132.944 147.455 132.123 147.698 131.458 148.184C130.793 148.67 130.389 149.336 130.251 150.181Z" fill="black"/>
<path d="M147.594 140.02V144.921H150.544V147.62H147.594V157.778H143.989V147.62H141.457V144.921H143.989V140.02H147.594Z" fill="black"/>
<path d="M165.321 151.309C165.321 151.677 165.301 152.063 165.262 152.464H154.655C154.774 153.308 155.187 153.977 155.892 154.473C156.598 154.969 157.467 155.217 158.5 155.217C159.235 155.217 159.921 155.075 160.556 154.791C161.191 154.508 161.669 154.1 161.986 153.566C162.422 153.787 163.347 154.245 164.758 154.942C164.16 155.989 163.276 156.768 162.105 157.282C160.933 157.796 159.651 158.054 158.26 158.054C156.235 158.054 154.524 157.425 153.136 156.167C151.745 154.909 151.05 153.291 151.05 151.309C151.05 149.327 151.745 147.72 153.136 146.49C154.527 145.26 156.235 144.646 158.26 144.646C160.286 144.646 161.968 145.26 163.311 146.49C164.651 147.72 165.321 149.327 165.321 151.309ZM154.625 150.181H161.778C161.639 149.319 161.25 148.647 160.615 148.171C159.978 147.695 159.205 147.455 158.291 147.455C157.318 147.455 156.497 147.698 155.832 148.184C155.167 148.67 154.764 149.336 154.625 150.181Z" fill="black"/>
<path d="M168.566 164V144.921H170.562V147.152C171.058 146.362 171.794 145.748 172.766 145.307C173.739 144.866 174.752 144.646 175.804 144.646C177.83 144.646 179.523 145.275 180.883 146.533C182.243 147.79 182.924 149.419 182.924 151.419C182.924 153.418 182.243 155.025 180.883 156.237C179.523 157.448 177.83 158.054 175.804 158.054C174.732 158.054 173.713 157.851 172.751 157.448C171.788 157.044 171.058 156.455 170.562 155.686V164H168.566ZM180.931 151.419C180.931 150.006 180.44 148.83 179.455 147.896C178.473 146.961 177.255 146.493 175.804 146.493C174.315 146.493 173.069 146.933 172.065 147.813C171.063 148.695 170.562 149.895 170.562 151.419C170.562 152.905 171.094 154.075 172.157 154.929C173.22 155.781 174.437 156.21 175.807 156.21C177.275 156.21 178.497 155.774 179.473 154.902C180.445 154.03 180.931 152.87 180.931 151.419Z" fill="black"/>
<path d="M187.114 150.757V157.778H185.118V137.956H187.114V147.041C187.512 146.252 188.156 145.656 189.051 145.252C189.945 144.849 190.84 144.646 191.731 144.646C193.42 144.646 194.742 145.147 195.694 146.147C196.646 147.147 197.115 148.527 197.095 150.291V157.781H195.1V150.291C195.1 149.098 194.808 148.161 194.221 147.482C193.634 146.803 192.805 146.465 191.731 146.465C190.48 146.465 189.396 146.818 188.484 147.525C187.57 148.229 187.114 149.309 187.114 150.757Z" fill="black"/>
<path d="M213.362 144.921V157.778H211.366V155.576C210.87 156.365 210.135 156.977 209.163 157.407C208.19 157.838 207.175 158.054 206.123 158.054C204.098 158.054 202.403 157.43 201.042 156.182C199.682 154.934 199.001 153.311 199.001 151.309C199.001 149.309 199.682 147.698 201.042 146.478C202.403 145.257 204.096 144.646 206.123 144.646C207.197 144.646 208.214 144.851 209.177 145.265C210.139 145.678 210.87 146.27 211.366 147.041V144.921H213.362ZM200.998 151.309C200.998 152.722 201.489 153.892 202.471 154.819C203.454 155.746 204.67 156.21 206.121 156.21C207.61 156.21 208.858 155.774 209.86 154.902C210.863 154.03 211.364 152.832 211.364 151.309C211.364 149.823 210.833 148.647 209.77 147.786C208.707 146.924 207.489 146.493 206.119 146.493C204.648 146.493 203.425 146.933 202.454 147.813C201.483 148.693 200.998 149.86 200.998 151.309Z" fill="black"/>
<path d="M225.25 145.142L225.011 146.931C224.374 146.638 223.701 146.49 222.986 146.49C221.655 146.49 220.655 147.109 219.99 148.349C219.325 149.587 218.992 151.133 218.992 152.987V157.778H216.997V144.922H218.992V147.841C219.647 145.711 220.978 144.648 222.986 144.648C223.442 144.648 223.9 144.704 224.356 144.814C224.812 144.924 225.112 145.032 225.25 145.142Z" fill="black"/>
<path d="M239.018 150.757V157.778H237.023V150.289C237.023 149.096 236.73 148.159 236.143 147.48C235.556 146.801 234.728 146.463 233.655 146.463C232.402 146.463 231.319 146.816 230.407 147.522C229.493 148.229 229.037 149.306 229.037 150.757V157.778H227.041V144.921H229.037V147.041C229.435 146.29 230.11 145.701 231.062 145.28C232.017 144.859 232.878 144.646 233.655 144.646C236.038 144.646 237.647 145.58 238.481 147.455C239.454 145.583 241.172 144.646 243.636 144.646C245.324 144.646 246.646 145.147 247.599 146.147C248.554 147.147 249.02 148.527 248.999 150.291V157.781H247.002V150.291C247.002 149.098 246.709 148.161 246.122 147.482C245.535 146.803 244.707 146.465 243.634 146.465C242.381 146.465 241.298 146.818 240.386 147.525C239.474 148.229 239.018 149.309 239.018 150.757Z" fill="black"/>
<rect x="1" y="1" width="300" height="234" stroke="#D9D9D9"/>
</svg>
