<svg width="302" height="236" viewBox="0 0 302 236" fill="none" xmlns="http://www.w3.org/2000/svg">
<path d="M86.4907 119.432C85.2583 118.472 84.8 117.403 85.0789 116.24C85.1627 115.888 85.2056 115.711 85.2895 115.359C85.7282 113.525 86.5531 113.085 87.6685 113.388C90.0436 114.03 92.251 115.49 94.7724 115.994C96.8842 116.416 98.5339 115.906 98.7212 114.538C99.0487 112.145 95.1877 110.658 93.4971 109.45C90.416 107.247 88.4134 104.403 89.3552 100.513C90.7788 94.6416 97.2079 93.2499 102.483 94.2937C104.723 94.7374 107.128 95.402 109.004 96.7155C110.283 97.6107 110.827 98.7385 110.554 100.502C110.532 100.638 110.523 100.707 110.501 100.846C110.244 102.493 109.288 102.91 108.305 102.704C106.593 102.345 104.793 101.438 103.077 101.047C101.153 100.609 99.3198 101.164 99.1287 102.544C98.7972 104.929 102.73 106.449 104.413 107.579C107.446 109.616 109.951 112.511 109.302 116.418C108.222 122.925 100.404 123.894 95.137 122.726C92.1126 122.051 89.0783 121.258 86.4907 119.432ZM156.681 107.253C156.8 112.798 156.917 118.341 157.034 123.887C157.136 126.346 154.944 127.765 152.686 127.69C151.816 127.696 151.381 127.696 150.51 127.696C148.251 127.782 146.054 126.371 146.143 123.912C146.229 118.871 146.315 113.83 146.401 108.789C146.424 107.442 145.596 106.758 144.348 106.727C143.236 106.7 142.109 107.136 140.785 108.185C140.586 113.373 140.387 118.56 140.188 123.746C140.143 126.207 137.87 127.493 135.619 127.282C134.75 127.235 134.317 127.21 133.447 127.157C131.187 127.108 129.075 125.57 129.311 123.118C129.697 118.091 130.083 113.066 130.469 108.039C130.573 106.696 129.787 105.963 128.541 105.857C127.431 105.763 126.277 106.131 124.89 107.1C124.383 112.266 123.878 117.431 123.371 122.597C123.178 125.054 120.828 126.197 118.594 125.853C117.732 125.755 117.299 125.705 116.437 125.599C114.183 125.413 112.161 123.754 112.543 121.318C113.485 114.456 114.425 107.591 115.366 100.728C115.622 98.4746 117.642 97.1904 119.807 97.5305C119.957 97.5482 120.033 97.5579 120.183 97.5755C122.328 97.7593 123.995 99.4285 123.748 101.653C126.281 99.3269 129.482 97.986 132.948 98.2635C135.647 98.4785 138.675 99.6239 139.901 102.263C142.197 100.161 145.166 98.7815 148.292 98.8812C153.068 99.0356 156.757 102.233 156.681 107.253ZM160.022 89.2625C159.932 86.7547 162.112 84.0476 164.883 84.0007C167.48 83.9577 170.095 85.9983 170.316 88.6683C170.546 91.4556 168.11 93.7835 165.46 94.0396C162.656 94.3113 160.115 91.8446 160.022 89.2625ZM170.994 102.396C171.525 109.303 172.055 116.211 172.586 123.118C172.822 125.57 170.71 127.108 168.45 127.157C167.584 127.21 167.151 127.235 166.283 127.282C164.033 127.493 161.759 126.207 161.714 123.746C161.451 116.823 161.186 109.899 160.923 102.978C160.778 100.695 162.571 99.0903 164.77 99.0512C165.552 99.0082 165.942 98.9867 166.722 98.9379C168.912 98.7248 170.878 100.111 170.994 102.396ZM184.293 89.6202C185.717 100.222 187.141 110.824 188.564 121.426C188.94 123.861 186.912 125.517 184.658 125.695C183.794 125.798 183.363 125.847 182.5 125.943C180.265 126.281 177.917 125.13 177.732 122.673C176.718 112.024 175.704 101.375 174.692 90.7246C174.419 88.5276 175.969 86.7723 178.139 86.6042C178.884 86.5221 179.255 86.4791 179.999 86.3892C182.152 86.0608 184.061 87.4154 184.293 89.6202ZM216.769 116.051C216.82 116.26 216.845 116.365 216.894 116.575C217.44 118.68 215.798 120.308 213.838 120.669C208.402 121.875 202.947 122.943 197.458 123.873C195.397 124.326 192.835 123.592 192.493 121.217C192.361 120.3 192.534 119.231 193.008 118.156C195.338 112.833 197.536 107.462 199.601 102.03C197.618 102.405 195.627 102.753 193.634 103.078C191.715 103.467 189.82 102.421 189.57 100.38C189.539 100.167 189.523 100.06 189.49 99.8468C189.139 97.8609 190.561 96.2854 192.486 96.0431C197.316 95.23 202.113 94.3015 206.898 93.2578C208.737 92.7417 210.872 93.4063 211.336 95.4332C211.535 96.3031 211.473 97.3429 211.137 98.4082C209.287 104.069 207.294 109.669 205.161 115.228C207.54 114.755 209.911 114.251 212.276 113.717C214.181 113.209 216.309 113.965 216.769 116.051ZM153.639 152C166.449 151.955 178.266 146.21 186.062 136.238C187.39 134.539 187.094 132.083 185.397 130.749C183.703 129.418 181.251 129.715 179.922 131.416C173.607 139.492 164.017 144.144 153.61 144.181C142.84 144.224 132.69 139.236 125.772 130.511C124.432 128.82 121.977 128.541 120.292 129.883C118.605 131.226 118.327 133.687 119.666 135.376C128.049 145.946 140.37 152 153.489 152C153.54 152 153.591 152 153.639 152Z" fill="#050505"/>
<rect x="1" y="1" width="300" height="234" stroke="#D9D9D9"/>
</svg>
