<svg width="302" height="236" viewBox="0 0 302 236" fill="none" xmlns="http://www.w3.org/2000/svg">
<g clip-path="url(#clip0_245_690)">
<path d="M117.361 156.41V166.958H119.176V156.287C119.176 152.951 121.809 150.202 125.222 150.171C126.295 150.171 127.067 150.349 127.971 150.828L129.152 149.538C127.924 148.797 126.588 148.426 125.222 148.465C122.882 148.465 120.543 149.461 118.898 151.615C117.323 153.515 117.354 156.41 117.354 156.41H117.361Z" fill="#231F20"/>
<path d="M144.549 152.519C143.028 149.662 139.715 148.426 136.75 148.426C131.631 148.426 127.446 152.21 127.446 157.8C127.446 163.391 131.631 167.251 136.75 167.251C139.715 167.251 142.456 165.923 144.24 163.066V166.958H146.054V158.503C146.054 156.379 145.522 154.094 144.556 152.519H144.549ZM136.75 165.475C132.596 165.475 129.26 162.402 129.26 157.8C129.26 153.198 132.596 150.171 136.75 150.171C146.942 150.171 146.942 165.475 136.75 165.475Z" fill="#231F20"/>
<path d="M148.649 156.796V166.958H150.463V156.766C150.463 152.982 153.096 150.133 156.88 150.094C160.841 150.056 163.397 152.279 163.397 156.434V166.958H165.219V156.395C165.219 151.314 161.845 148.311 156.949 148.311C154.394 148.349 152.015 149.461 150.402 151.554C148.44 153.87 148.649 156.796 148.649 156.796Z" fill="#231F20"/>
<path d="M202.931 148.65L198.337 159.437L196.221 164.773L194.074 159.468L189.812 148.65H187.851L195.186 166.734L189.781 178H191.712L204.9 148.65H202.931Z" fill="#231F20"/>
<path d="M98.9069 140.35V152.187C100.413 149.168 103.432 147.816 106.636 147.816C111.84 147.816 115.987 151.283 115.987 157.43C115.987 163.576 111.879 167.043 106.675 167.043C103.509 167.043 100.451 165.46 98.9069 162.634V166.742H97.1001V140.35H98.9069ZM98.9455 157.391C98.9455 162.032 102.189 165.236 106.559 165.236C110.929 165.236 114.172 162.595 114.172 157.43C114.172 152.264 110.744 149.585 106.559 149.585C102.374 149.585 98.9455 152.75 98.9455 157.391Z" fill="#231F20"/>
<path d="M186.005 140.35V166.742H184.199V162.634C182.654 165.46 179.597 167.043 176.431 167.043C171.226 167.043 167.119 163.614 167.119 157.43C167.119 151.245 171.265 147.816 176.469 147.816C179.674 147.816 182.693 149.175 184.199 152.187V140.35H186.005ZM168.925 157.43C168.925 162.595 172.354 165.236 176.539 165.236C180.724 165.236 184.152 162.032 184.152 157.391C184.152 152.75 180.832 149.585 176.539 149.585C172.246 149.585 168.925 152.187 168.925 157.43Z" fill="#231F20"/>
<path d="M152 59.0268C161.721 57.3049 170.007 57.7528 176.856 60.3086C182.593 62.4474 186.716 65.7677 189.218 70.2693C190.059 71.8213 190.654 73.5201 191.001 75.3732C191.828 79.8208 191.295 84.5232 189.395 89.4804C186.191 97.781 179.828 104.576 170.3 109.865C170.748 110.66 171.057 111.533 171.234 112.483C172.006 116.629 170.547 121.223 166.872 126.25C163.188 131.277 155.706 135.207 151.745 136.666C149.745 137.4 148.294 137.408 147.39 136.697C146.796 136.234 146.41 135.562 146.24 134.659C146.07 133.755 146.124 132.659 146.402 131.37C146.834 129.115 147.715 127.501 149.027 126.528C149.243 126.335 149.46 126.212 149.668 126.173C150.324 126.049 150.726 126.335 150.857 127.038L150.649 129.014C150.656 129.061 150.664 129.115 150.68 129.161C150.718 129.362 150.741 129.486 150.749 129.54C151.12 129.933 151.66 130.095 152.378 130.018C153.845 129.848 157.83 129.292 161.644 126.358C163.443 124.976 164.787 123.37 165.852 121.772C166.277 121.069 166.547 120.583 166.671 120.297C166.872 119.795 166.957 119.208 166.918 118.544C166.764 116.351 165.582 114.575 163.366 113.224C158.262 115.417 152.726 117.139 146.765 118.405C146.765 118.405 142.703 119.2 143.746 119.046C138.449 119.857 133.808 120.042 129.785 119.386C127.492 119.038 126.21 118.158 125.955 116.76C125.847 116.158 125.878 115.432 126.056 114.568C126.774 111.741 128.859 109.309 132.326 107.271C135.407 105.456 138.696 104.267 142.14 103.503C143.298 103.248 145.267 103.078 145.267 103.078C147.413 102.885 149.714 102.846 152.17 102.962C158.2 103.24 162.856 104.236 166.123 105.958C172.732 103.132 177.898 99.7654 181.62 95.8738C186.013 91.2332 187.72 86.2914 186.747 81.0408C185.774 75.7979 182.4 71.6669 176.624 68.6555C170.578 65.5438 163.057 64.5708 154.046 65.482C140.842 66.8178 132.889 71.2191 132.889 71.2191C127.314 73.9139 123.299 77.2109 120.404 80.2764C119.045 81.7126 118.095 82.9017 117.539 83.8283C117.377 84.114 117.176 84.5309 116.937 85.0637C116.697 85.5965 116.512 86.0057 116.396 86.2837C115.941 87.967 115.871 89.4572 116.195 90.739C116.566 92.0671 117.045 92.8779 117.608 93.1867C117.856 93.3489 118.01 93.6037 118.072 93.9512C118.242 94.8468 117.917 96.0746 117.122 97.6189C116.319 99.1632 115.508 100.013 114.682 100.167C113.315 100.422 112.358 99.0242 111.786 95.9742C111.624 95.1248 111.539 94.3141 111.524 93.5419C111.578 88.3145 113.447 83.3186 117.137 78.5468C117.137 78.5468 130.658 62.8103 152.008 59.0191L152 59.0268ZM146.047 111.935C148.34 111.61 150.749 111.116 153.282 110.437L153.143 110.383C151.521 110.22 149.089 110.05 145.838 109.873C145.838 109.873 143.252 109.865 142.734 109.911C141.599 110.02 140.541 110.189 139.561 110.421C137.646 110.931 135.762 111.595 133.901 112.406C136.534 112.537 139.553 112.444 142.966 112.197C143.043 112.197 146.047 111.935 146.047 111.935Z" fill="#231F20"/>
</g>
<rect x="1" y="1" width="300" height="234" stroke="#D9D9D9"/>
<defs>
<clipPath id="clip0_245_690">
<rect width="107.8" height="120" fill="white" transform="translate(97.1001 58)"/>
</clipPath>
</defs>
</svg>
