<svg width="302" height="236" viewBox="0 0 302 236" fill="none" xmlns="http://www.w3.org/2000/svg">
<g clip-path="url(#clip0_245_656)">
<path fill-rule="evenodd" clip-rule="evenodd" d="M166.398 102.011C166.398 102.011 194.757 102 197.449 102.011C200.134 102.022 202.169 104.174 201.511 106.309C200.854 108.444 199.709 112.842 199.415 113.871C198.82 115.973 196.366 116.891 193.437 116.869C190.508 116.847 184.348 116.869 184.348 116.869L195.584 122.87H181.657C181.657 122.87 170.778 116.847 168.863 115.735C166.947 114.623 167.61 112.56 170.597 112.56H189.187L190.921 106.309H164.862L166.398 102.011Z" fill="#382F2D"/>
<path fill-rule="evenodd" clip-rule="evenodd" d="M150.091 122.87C150.091 122.87 152.312 115.088 153.598 110.297C154.884 105.501 159.032 101.978 166.398 102.011C166.398 102.011 164.182 109.794 162.896 114.584C161.61 119.38 157.462 122.898 150.091 122.865V122.87Z" fill="#382F2D"/>
<path d="M65.5905 112.056L88.006 102.011H102.528L80.0563 112.001L97.3269 122.87H83.0424L65.5905 112.056Z" fill="#382F2D"/>
<path fill-rule="evenodd" clip-rule="evenodd" d="M65.5905 112.056L88.006 102.011H102.528L80.0563 112.001L97.3269 122.87H83.0424L65.5905 112.056Z" fill="#382F2D"/>
<path fill-rule="evenodd" clip-rule="evenodd" d="M218.34 102.011H251L249.804 106.309H216.991L218.34 102.011Z" fill="#382F2D"/>
<path fill-rule="evenodd" clip-rule="evenodd" d="M219.847 110.292H248.728L247.595 114.59H218.652L219.847 110.292Z" fill="#382F2D"/>
<path fill-rule="evenodd" clip-rule="evenodd" d="M202.044 122.87C202.044 122.87 204.254 115.088 205.54 110.297C206.826 105.501 210.974 101.978 218.34 102.011L212.685 122.87H202.038H202.044Z" fill="#382F2D"/>
<path fill-rule="evenodd" clip-rule="evenodd" d="M148.787 108.964C148.787 108.964 148.583 109.788 147.297 114.584C146.011 119.38 141.863 122.898 134.497 122.865L140.152 102.011L148.787 108.964Z" fill="#382F2D"/>
<path fill-rule="evenodd" clip-rule="evenodd" d="M114.79 102.011H144.906L143.71 106.309H113.442L114.79 102.011Z" fill="#382F2D"/>
<path fill-rule="evenodd" clip-rule="evenodd" d="M98.4941 122.87C98.4941 122.87 100.704 115.088 101.99 110.297C103.276 105.501 107.424 101.978 114.79 102.011L109.135 122.87H98.4884H98.4941Z" fill="#382F2D"/>
<path fill-rule="evenodd" clip-rule="evenodd" d="M134.503 122.871H98.4941L99.6897 118.573H135.851L134.503 122.871Z" fill="#382F2D"/>
<path fill-rule="evenodd" clip-rule="evenodd" d="M119.742 102.011C119.742 102.011 142.838 102 145.524 102.011C148.215 102.022 150.249 104.174 149.586 106.309C148.929 108.444 147.79 112.842 147.495 113.871C146.9 115.973 144.447 116.891 141.518 116.869C138.588 116.847 137.274 112.56 137.274 112.56L139.007 106.309H118.207L119.742 102.011Z" fill="#382F2D"/>
<path fill-rule="evenodd" clip-rule="evenodd" d="M211.631 118.573H246.501L245.368 122.871H210.436L211.631 118.573Z" fill="#382F2D"/>
<path d="M51 128.22H60.5362V129.127H53.2495V130.676H59.709V131.583H53.2495V133.895H51V128.208V128.22Z" fill="#E1251B"/>
<path d="M73.7441 128.219H75.9936V133.906H73.7441V128.219Z" fill="#E1251B"/>
<path d="M93.1735 129.143H89.1108V128.219H99.5027V129.143H95.44V133.9H93.1735V129.143Z" fill="#E1251B"/>
<path d="M128.599 128.219H130.848V132.993H137.58V133.9H128.593V128.214L128.599 128.219Z" fill="#382F2D"/>
<path d="M150.669 128.219H152.918V133.906H150.669V128.219Z" fill="#382F2D"/>
<path d="M165.854 128.219H168.341L172.2 132.589L176.042 128.219H178.478L173.152 133.945H171.174L165.848 128.219H165.854Z" fill="#382F2D"/>
<path d="M191.414 128.219H193.664V133.906H191.414V128.219Z" fill="#382F2D"/>
<path d="M207.699 128.219H209.784L216.646 132.147V128.219H218.861V133.906H216.974L209.909 129.862V133.906H207.693V128.219H207.699Z" fill="#382F2D"/>
<path d="M232.2 131.074V131.057C232.2 129.464 234.942 128.12 238.806 128.12C241.039 128.12 242.41 128.396 243.73 128.889L242.302 129.647C241.316 129.27 240.342 129.038 238.716 129.038C236.353 129.038 234.562 129.956 234.562 131.046V131.063C234.562 132.23 236.302 133.093 238.92 133.093C240.127 133.093 241.226 132.921 242.013 132.661V131.599H238.738V130.731H244.189V133.12C242.926 133.602 241.113 134.005 238.846 134.005C234.84 134.005 232.205 132.739 232.205 131.085L232.2 131.074Z" fill="#382F2D"/>
<path fill-rule="evenodd" clip-rule="evenodd" d="M121.182 110.491H129.171L128.123 114.286H120.156" fill="#E1251B"/>
<path fill-rule="evenodd" clip-rule="evenodd" d="M67.3186 102C67.3186 102 65.1088 109.783 63.8226 114.573C62.5364 119.369 58.3887 122.887 51.017 122.859L56.6718 102H67.3186Z" fill="#382F2D"/>
</g>
<rect x="1" y="1" width="300" height="234" stroke="#D9D9D9"/>
<defs>
<clipPath id="clip0_245_656">
<rect width="200" height="32" fill="white" transform="translate(51 102)"/>
</clipPath>
</defs>
</svg>
