<svg width="302" height="236" viewBox="0 0 302 236" fill="none" xmlns="http://www.w3.org/2000/svg">
<path d="M133.819 117.253H133.778L133.8 117.218L133.819 117.253Z" fill="#121212"/>
<path d="M133.819 117.253H133.778L133.8 117.218L133.819 117.253Z" fill="#121212"/>
<path d="M145.32 97.238C145.067 97.238 144.834 97.3681 144.702 97.5837L134.65 114.318C134.269 114.954 133.343 114.95 132.966 114.312L123.095 97.6142L123.085 97.5959C122.955 97.3742 122.718 97.238 122.459 97.238H111.367C110.807 97.238 110.46 97.844 110.744 98.326L110.776 98.383L122.155 117.639L122.168 117.657C122.298 117.875 122.535 118.007 122.787 118.007H130.703C131.463 118.007 131.934 118.835 131.543 119.486L120.71 137.523L120.675 137.582C120.388 138.064 120.736 138.673 121.297 138.673H132.385C132.638 138.673 132.872 138.54 133.002 138.325L133.017 138.302L139.908 126.84L139.921 126.818C140.055 126.592 140.057 126.313 139.927 126.085L139.912 126.061L136.022 119.484C135.637 118.833 136.108 118.009 136.866 118.009H144.798C145.053 118.009 145.289 117.875 145.42 117.657L145.428 117.643L157.001 98.383L157.033 98.3281C157.321 97.8461 156.974 97.2359 156.411 97.2359H145.316L145.32 97.238ZM133.778 117.253L133.8 117.218L133.82 117.253L133.778 117.253Z" fill="#121212"/>
<path d="M72.9218 138.581L54.0679 98.0251C53.8456 97.5471 54.1963 97 54.7244 97H66.697C66.9865 97 67.2475 97.1729 67.3617 97.4373L80.2048 127.295C80.4556 127.877 81.2834 127.879 81.5342 127.295L94.4324 97.4353C94.5466 97.1709 94.8076 97 95.0971 97H106.181C106.705 97 107.055 97.539 106.841 98.0169L88.6439 138.573C88.5277 138.833 88.2688 139 87.9833 139H73.5783C73.297 139 73.04 138.837 72.9218 138.581Z" fill="#121212"/>
<path d="M161.023 97.722C161.023 97.3234 161.348 97 161.747 97H188.431C191.448 97 193.93 97.301 195.873 97.903C197.816 98.505 199.353 99.2758 200.485 100.215C201.616 101.155 202.399 102.217 202.834 103.4C203.268 104.584 203.484 105.76 203.484 106.925V107.545C203.484 108.861 203.229 110.018 202.719 111.015C202.21 112.011 201.567 112.847 200.795 113.525C200.02 114.202 199.182 114.729 198.277 115.103L198.25 115.115C197.63 115.371 197.645 116.256 198.281 116.465C198.609 116.575 198.937 116.693 199.268 116.825C200.456 117.297 201.512 117.946 202.436 118.774C203.36 119.604 204.114 120.629 204.699 121.853C205.284 123.077 205.576 124.536 205.576 126.23V126.852C205.576 128.282 205.321 129.724 204.811 131.174C204.302 132.624 203.415 133.924 202.153 135.073C200.888 136.222 199.161 137.163 196.974 137.898C194.786 138.632 191.993 139 188.598 139H161.745C161.346 139 161.021 138.677 161.021 138.278V97.722H161.023ZM172.682 106.36V112.536C172.682 112.935 173.006 113.258 173.406 113.258H186.734C188.508 113.258 189.715 112.886 190.355 112.142C190.996 111.397 191.318 110.527 191.318 109.534V109.42C191.318 108.389 190.987 107.501 190.327 106.756C189.666 106.012 188.467 105.638 186.732 105.638H173.404C173.004 105.638 172.68 105.961 172.68 106.36H172.682ZM172.682 122.166V129.02C172.682 129.419 173.006 129.742 173.406 129.742H187.64C188.659 129.742 189.507 129.62 190.186 129.376C190.865 129.132 191.403 128.811 191.799 128.416C192.194 128.022 192.478 127.57 192.647 127.062C192.816 126.553 192.902 126.037 192.902 125.51V125.284C192.902 124.757 192.816 124.259 192.647 123.787C192.478 123.317 192.194 122.913 191.799 122.573C191.403 122.233 190.865 121.961 190.186 121.755C189.507 121.55 188.659 121.444 187.64 121.444H173.406C173.006 121.444 172.682 121.768 172.682 122.166Z" fill="#121212"/>
<path d="M248 97.722V105.536C248 105.934 247.676 106.258 247.276 106.258H221.671C221.272 106.258 220.948 106.581 220.948 106.98V112.253C220.948 112.652 221.272 112.975 221.671 112.975H245.455C245.855 112.975 246.179 113.299 246.179 113.697V121.737C246.179 122.136 245.855 122.459 245.455 122.459H221.671C221.272 122.459 220.948 122.782 220.948 123.181V129.02C220.948 129.419 221.272 129.742 221.671 129.742H247.274C247.674 129.742 247.998 130.065 247.998 130.464V138.278C247.998 138.677 247.674 139 247.274 139H210.184C209.784 139 209.46 138.677 209.46 138.278V97.722C209.46 97.3234 209.784 97 210.184 97H247.276C247.676 97 248 97.3234 248 97.722Z" fill="#121212"/>
<rect x="1" y="1" width="300" height="234" stroke="#D9D9D9"/>
</svg>
