<svg width="302" height="236" viewBox="0 0 302 236" fill="none" xmlns="http://www.w3.org/2000/svg">
<g clip-path="url(#clip0_245_502)">
<path d="M78.1508 162.119C78.1508 163.173 77.5461 163.774 76.4878 163.774H64.2801C57.4771 163.774 54 161.781 54 157.869V143.313C54 142.185 54.7181 141.545 56.0031 141.545C57.7795 141.545 58.044 142.636 58.044 143.313V157.869C58.044 159.524 60.0849 160.352 64.129 160.352H76.4878C77.5461 160.352 78.1508 160.991 78.1508 162.157V162.119Z" fill="black"/>
<path d="M84.1602 143.313V162.119C84.1602 162.759 83.8956 163.887 82.1193 163.887C80.3429 163.887 80.0784 162.796 80.0784 162.119V143.313C80.0784 142.674 80.3429 141.545 82.1949 141.545C83.4421 141.545 84.198 142.185 84.198 143.313H84.1602Z" fill="black"/>
<path d="M123.278 143.877V162.119C123.278 162.796 123.013 163.925 121.161 163.925C119.952 163.925 119.234 163.285 119.234 162.119V148.052L108.16 162.608C107.517 163.473 106.686 163.925 105.741 163.925H105.665C105.098 163.925 104.607 163.812 104.191 163.586C103.776 163.361 103.398 163.022 103.095 162.608L91.8324 148.09V162.119C91.8324 163.248 91.1143 163.925 89.8293 163.925C88.0529 163.925 87.8262 162.796 87.8262 162.119V143.802C87.8262 142.335 88.6199 141.545 90.0561 141.545C91.0387 141.545 91.8702 141.959 92.5127 142.824L105.703 159.599L118.629 142.674C118.893 142.335 119.271 142.034 119.687 141.846C120.103 141.658 120.519 141.545 120.934 141.545C122.446 141.545 123.278 142.373 123.278 143.877Z" fill="black"/>
<path d="M131.026 143.313V162.119C131.026 162.759 130.761 163.887 128.985 163.887C127.208 163.887 126.944 162.796 126.944 162.119V143.313C126.944 142.674 127.208 141.545 129.06 141.545C130.307 141.545 131.063 142.185 131.063 143.313H131.026Z" fill="black"/>
<path d="M156.612 143.351C156.612 144.479 156.008 145.119 154.987 145.119H146.748V162.119C146.748 162.796 146.483 163.925 144.707 163.925C142.931 163.925 142.704 162.796 142.704 162.119V145.119H134.427C133.369 145.119 132.764 144.479 132.764 143.351C132.764 142.335 133.369 141.733 134.427 141.733H155.025C156.046 141.733 156.65 142.335 156.65 143.351H156.612Z" fill="black"/>
<path d="M193.198 147.338V158.133C193.198 161.856 190.174 163.737 184.203 163.737H180.612C180.612 163.737 180.499 163.737 180.461 163.737H168.215C161.412 163.737 157.935 161.743 157.935 157.832V143.276C157.935 142.147 158.653 141.508 159.938 141.508C160.543 141.508 161.979 141.696 161.979 143.276V157.832C161.979 159.449 164.02 160.314 168.026 160.314H170.861C170.861 160.314 170.974 160.314 171.012 160.314H182.275C186.546 160.314 189.003 159.524 189.003 158.133V154.409H170.785C169.803 154.409 169.236 153.769 169.236 152.679C169.236 151.588 169.803 150.949 170.785 150.949H189.003V147.413C189.003 145.156 185.488 145.156 184.316 145.156H170.785C169.727 145.156 169.123 144.554 169.123 143.501C169.123 142.373 169.727 141.733 170.785 141.733H184.392C190.174 141.733 193.084 143.614 193.084 147.3L193.198 147.338Z" fill="black"/>
<path d="M219.919 156.402V158.622C219.919 162.157 217.084 163.963 211.49 163.963H197.393C196.373 163.963 195.768 163.323 195.768 162.157C195.768 161.104 196.373 160.502 197.393 160.502H211.906C215.837 160.502 215.837 158.96 215.837 158.433V156.628C215.837 155.086 214.287 154.334 211.112 154.334H204.687C198.905 154.334 195.957 152.679 195.957 149.444V147.338C195.957 143.765 198.565 141.959 203.667 141.959H217.575C218.634 141.959 219.238 142.561 219.238 143.614C219.238 144.667 218.634 145.269 217.575 145.269H203.176C200.379 145.269 200.039 146.586 200.039 147.563V149.181C200.039 150.384 201.437 150.986 204.196 150.986H210.735C213.72 150.986 216.026 151.4 217.538 152.265C219.125 153.168 219.956 154.559 219.956 156.402H219.919Z" fill="black"/>
<path d="M248 156.402V158.622C248 162.157 245.165 163.963 239.572 163.963H225.474C224.454 163.963 223.849 163.323 223.849 162.157C223.849 161.104 224.454 160.502 225.474 160.502H239.988C243.918 160.502 243.918 158.96 243.918 158.433V156.628C243.918 155.086 242.369 154.334 239.194 154.334H232.769C226.986 154.334 224.038 152.679 224.038 149.444V147.338C224.038 143.765 226.646 141.959 231.748 141.959H245.657C246.715 141.959 247.32 142.561 247.32 143.614C247.32 144.667 246.715 145.269 245.657 145.269H231.257C228.46 145.269 228.12 146.586 228.12 147.563V149.181C228.12 150.384 229.518 150.986 232.277 150.986H238.816C241.802 150.986 244.107 151.4 245.619 152.265C247.244 153.168 248.038 154.559 248.038 156.402H248Z" fill="black"/>
<path d="M193.613 95.3574C193.5 94.3795 193.349 93.1007 192.895 91.8218C192.404 90.355 191.686 89.3394 190.779 88.6248C190.25 88.2111 189.607 87.9102 188.927 87.7597C188.322 87.6469 187.68 87.6093 186.962 87.6469C185.903 87.7597 184.807 88.0606 183.447 88.6248C182.464 89.0385 181.444 89.5651 180.31 90.2045C177.324 91.9723 174.565 94.0034 172.448 95.6583C170.445 94.4171 168.442 93.1007 166.477 91.8218L165.116 90.9191C161.564 88.6248 157.557 85.9919 153.513 83.5847C152.039 82.7196 150.112 81.6289 148.109 80.5381C142.099 76.8521 136.997 74.4073 132.5 73.0909C127.17 71.5111 122.824 71.5487 119.196 73.1661C113.791 75.5733 110.163 81.6665 108.462 91.2577C108.273 92.0851 108.198 92.6117 108.689 92.7622C109.142 92.9126 109.331 92.4613 109.483 92.0851C111.901 88.3991 114.358 85.5782 116.966 83.4343C116.626 84.2241 116.286 85.0516 116.021 85.9543C115.379 87.9854 114.925 90.1669 114.623 93.0254C114.396 95.2446 114.282 97.5389 114.282 100.059C114.282 102.541 114.396 104.836 114.547 107.017C114.774 109.838 115.076 111.982 115.53 113.976C116.134 116.721 116.853 118.903 117.873 120.821C118.515 122.025 119.234 123.078 120.027 123.943C120.481 124.469 121.048 124.921 121.501 125.259C122.144 125.748 122.711 126.049 123.202 126.312C124.336 126.839 125.621 127.178 127.057 127.253C127.246 127.253 127.435 127.253 127.624 127.253C128.644 127.253 129.74 127.14 130.799 126.877C132.877 126.425 134.994 125.598 137.488 124.319C141.797 122.062 145.69 119.166 149.016 116.646C153.249 113.374 157.406 109.838 161.412 106.453C164.247 104.083 167.157 101.601 170.067 99.2315C170.559 98.8178 171.05 98.4416 171.504 98.0655C172.902 98.8554 174.187 99.57 175.434 100.247C177.891 101.563 179.856 102.466 181.746 103.218C183.031 103.707 184.089 104.046 185.147 104.309C186.168 104.535 187.491 104.761 188.927 104.572C189.683 104.46 190.325 104.234 190.892 103.895C191.497 103.557 192.026 103.03 192.442 102.429C193.273 101.187 193.538 99.7581 193.651 98.7801C193.727 98.1407 193.727 97.5389 193.727 96.9748C193.727 96.373 193.651 95.7335 193.613 95.207V95.3574ZM169.916 97.6894C169.689 97.8774 169.425 98.0655 169.198 98.2536C167.006 100.021 164.776 101.827 162.66 103.595C157.898 107.506 152.984 111.606 147.882 115.254C145.879 116.721 144.027 117.962 142.288 119.053C140.134 120.407 138.206 121.46 136.43 122.288C134.125 123.341 132.122 124.018 130.27 124.357C129.211 124.545 128.191 124.582 127.246 124.507C126.226 124.394 125.281 124.131 124.525 123.717C123.013 122.927 121.766 121.498 120.783 119.429C119.989 117.737 119.423 115.781 119.007 113.336C118.364 109.575 118.138 105.4 118.289 100.134C118.364 96.7867 118.667 91.7842 120.178 87.346C120.859 85.2773 121.804 83.5095 122.975 82.1555C124.147 80.8014 125.734 79.8235 127.586 79.3721C128.493 79.1465 129.438 79.0336 130.496 79.0336C131.441 79.0336 132.462 79.1088 133.52 79.2969C135.372 79.5978 137.413 80.162 139.718 80.9895C141.57 81.6665 143.536 82.494 145.652 83.5095C147.504 84.3746 149.432 85.3901 151.813 86.6689C155.63 88.7376 159.409 90.9944 163.567 93.4768L164.436 94.0034C166.326 95.1317 168.253 96.2601 170.143 97.3885C170.143 97.3885 170.219 97.4261 170.256 97.4637C170.143 97.5389 170.067 97.6142 169.954 97.6894H169.916ZM191.951 97.1252C191.951 97.6142 191.875 98.1407 191.799 98.7049C191.61 99.9085 191.308 100.774 190.817 101.451C190.325 102.128 189.532 102.579 188.625 102.654C187.793 102.729 186.81 102.654 185.639 102.316C184.694 102.052 183.711 101.714 182.577 101.225C180.839 100.473 178.987 99.5324 176.644 98.1783C175.661 97.6142 174.678 97.0124 173.733 96.4482C174.3 96.0344 174.867 95.6207 175.434 95.207C177.664 93.5896 179.403 92.4613 181.066 91.4833C182.124 90.8815 183.107 90.3926 184.051 90.0165C185.185 89.5651 186.206 89.3018 187.113 89.2266C188.171 89.1514 189.116 89.377 189.796 89.9036C190.439 90.3926 190.93 91.22 191.308 92.3484C191.573 93.2135 191.762 94.1914 191.875 95.5079C191.913 95.9592 191.951 96.5234 191.951 97.1252Z" fill="black"/>
</g>
<rect x="1" y="1" width="300" height="234" stroke="#D9D9D9"/>
<defs>
<clipPath id="clip0_245_502">
<rect width="194" height="92" fill="white" transform="translate(54 72)"/>
</clipPath>
</defs>
</svg>
