<svg width="302" height="236" viewBox="0 0 302 236" fill="none" xmlns="http://www.w3.org/2000/svg">
<g clip-path="url(#clip0_245_519)">
<path d="M69.2931 128.973C70.8454 130.066 73.045 130.853 75.4589 130.853C78.7358 130.853 81.755 128.885 81.755 125.3C81.755 123.114 80.5039 121.496 77.4862 119.792C73.7777 117.781 71.7085 115.42 71.7085 112.228C71.7085 106.983 76.1931 103.572 81.5393 103.572C84.3412 103.572 86.4554 104.447 87.4893 105.146L86.1962 108.075C85.2912 107.551 83.4797 106.676 81.1512 106.72C77.5731 106.72 75.4169 109.125 75.4169 111.53C75.4169 113.934 76.8823 115.289 79.9016 116.994C83.4797 118.917 85.4635 121.234 85.4635 124.863C85.4635 129.978 81.4958 133.956 74.9854 133.956C72.0531 133.956 69.2077 132.995 68 131.945L68.8046 130.096L69.2946 128.972L69.2931 128.973ZM86.1947 133.52L88.9982 118.525C89.4297 116.164 89.7309 114.109 89.9466 112.361H93.0947L92.5343 116.339H92.6632C94.6036 113.41 97.2332 111.88 99.9932 111.88C103.185 111.88 104.694 113.936 104.866 116.602C106.719 113.542 109.394 111.925 112.541 111.88C114.956 111.88 117.586 113.454 117.586 117.433C117.586 118.438 117.457 119.838 117.241 121.018L114.912 133.52H111.42L113.661 121.323C113.834 120.536 113.964 119.444 113.964 118.569C113.964 116.339 113.144 114.897 110.816 114.897C108.228 114.897 105.167 117.957 104.306 122.678L102.278 133.52H98.829L101.157 121.104C101.33 120.187 101.417 119.356 101.417 118.525C101.417 116.732 100.942 114.896 98.312 114.896C95.6824 114.896 92.4474 118.393 91.6293 122.896L89.6889 133.519H86.1962L86.1947 133.52ZM132.676 128.056C130.391 132.428 127.545 134.002 124.569 134.002C120.904 134.002 118.576 131.029 118.576 127.008C118.576 119.663 123.922 111.882 133.02 111.882C135.004 111.882 137.202 112.231 138.626 112.713L136.513 123.73L134.616 133.522H131.591L132.676 128.057V128.056ZM134.616 115.072C134.099 114.941 133.323 114.767 132.115 114.767C126.726 114.767 122.328 120.494 122.284 126.351C122.284 128.712 123.104 131.029 125.864 131.029C128.84 131.029 132.374 127.094 133.41 121.455L134.618 115.072H134.616ZM145.418 112.558C145.245 114.044 144.682 115.531 144.468 117.149H144.597C145.933 114.264 148.175 112.078 150.978 112.078C151.279 112.078 151.711 112.122 151.97 112.166L151.281 115.751C151.065 115.707 150.721 115.663 150.332 115.663C147.228 115.663 144.468 119.467 143.563 124.406L141.838 133.718H138.259L141.969 112.56H145.419L145.418 112.558ZM210.849 112.362C210.676 113.848 210.113 115.335 209.899 116.953H210.028C211.364 114.068 213.606 111.882 216.409 111.882C216.71 111.882 217.142 111.926 217.401 111.97L216.712 115.555C216.496 115.511 216.151 115.467 215.763 115.467C212.659 115.467 209.899 119.271 208.994 124.21L207.269 133.522H203.689L207.399 112.364H210.85L210.849 112.362ZM161.218 106.678L160.141 112.361H165.142L164.582 115.203H159.58L157.64 125.476C157.424 126.657 157.252 127.749 157.252 128.887C157.252 130.155 157.856 130.898 159.236 130.898C159.84 130.898 160.443 130.854 160.917 130.768L160.745 133.608C160.097 133.871 159.02 134.002 157.985 134.002C154.793 134.002 153.587 132.034 153.587 129.893C153.587 128.668 153.716 127.444 154.018 125.914L156.088 115.204H153.07L153.63 112.362H156.606L157.511 107.597L161.22 106.679L161.218 106.678ZM166.435 128.973C167.988 130.066 170.187 130.853 172.601 130.853C175.878 130.853 178.897 128.885 178.897 125.3C178.897 123.114 177.646 121.496 174.629 119.792C170.92 117.781 168.851 115.42 168.851 112.228C168.851 106.983 173.335 103.572 178.682 103.572C181.484 103.572 183.598 104.447 184.632 105.146L183.339 108.075C182.434 107.551 180.622 106.676 178.294 106.72C174.715 106.72 172.559 109.125 172.559 111.53C172.559 113.934 174.025 115.289 177.044 116.994C180.624 118.917 182.606 121.234 182.606 124.863C182.606 129.978 178.638 133.956 172.128 133.956C169.195 133.956 166.35 132.995 165.142 131.945L166.435 128.972V128.973ZM203.689 112.362L200.886 127.357C200.454 129.718 200.153 131.773 199.938 133.522H196.704L197.264 129.543H197.178C195.323 132.297 192.564 134.002 189.804 134.002C187.044 134.002 184.327 132.691 184.327 127.881C184.327 126.876 184.456 125.739 184.716 124.34L186.957 112.362H190.537L188.337 124.165C188.078 125.346 187.949 126.351 187.949 127.269C187.949 129.455 188.854 130.941 191.313 130.941C193.901 130.941 197.219 127.881 198.083 123.202L200.11 112.361H203.689V112.362ZM218.606 133.52L222.013 115.203H219.253L219.77 112.361H222.572L222.788 111.268C223.263 108.295 224.297 105.585 226.195 103.881C227.488 102.656 229.343 102.002 231.153 102.002C232.577 102.002 233.525 102.265 233.998 102.57L233.222 105.455C232.662 105.192 231.929 105.061 231.11 105.061C228.264 105.061 226.884 107.859 226.28 111.356L226.108 112.362H230.765L230.205 115.204H225.591L222.142 133.522H218.606V133.52Z" fill="black"/>
</g>
<rect x="1" y="1" width="300" height="234" stroke="#D9D9D9"/>
<defs>
<clipPath id="clip0_245_519">
<rect width="166" height="32" fill="white" transform="translate(68 102)"/>
</clipPath>
</defs>
</svg>
