<svg width="302" height="236" viewBox="0 0 302 236" fill="none" xmlns="http://www.w3.org/2000/svg">
<g clip-path="url(#clip0_245_516)">
<path d="M91.3984 157.535H88.4789L86.6175 153.943H75.7809L73.9259 157.535H71L79.5163 141.477H82.8757L91.3984 157.535ZM85.3267 151.546L81.2215 143.753L77.0781 151.533L85.3267 151.546Z" fill="#050505"/>
<path d="M115.995 157.535H113.327V144.405H113.26L104.9 154.881L96.6133 144.411H96.5463V157.542H93.8786V141.477H97.2125L104.929 151.18L112.677 141.477H116.001L115.995 157.535Z" fill="#050505"/>
<path d="M138.866 157.535H135.947L134.108 153.943H123.271L121.416 157.535H118.49L127.007 141.477H130.366L138.866 157.535ZM132.811 151.546L128.689 143.753L124.546 151.533L132.811 151.546Z" fill="#050505"/>
<path d="M161.537 157.535H158.433L154.076 151.412H145.948V157.535H143.28V141.477H155.978C157.668 141.477 158.994 141.931 159.956 142.841C160.919 143.75 161.401 144.981 161.403 146.535C161.403 147.896 161.01 148.989 160.224 149.816C159.417 150.627 158.359 151.143 157.222 151.282L161.537 157.535ZM155.577 149.018C157.636 149.018 158.666 148.19 158.669 146.535C158.669 144.761 157.556 143.873 155.331 143.871H145.948V149.018H155.577Z" fill="#050505"/>
<path d="M186.488 149.476C186.488 152.106 185.405 154.235 183.24 155.863C181.345 157.281 178.987 157.991 176.167 157.993C173.348 157.995 170.976 157.278 169.053 155.841C166.89 154.213 165.808 152.094 165.806 149.482C165.806 146.907 166.903 144.788 169.098 143.124C171.023 141.674 173.38 140.949 176.167 140.949C178.955 140.949 181.305 141.674 183.218 143.124C185.398 144.792 186.488 146.909 186.488 149.476ZM183.708 149.476C183.708 147.598 182.907 146.074 181.305 144.904C179.928 143.9 178.216 143.397 176.167 143.397C173.93 143.397 172.107 143.971 170.698 145.117C170.042 145.643 169.512 146.308 169.146 147.063C168.781 147.819 168.589 148.647 168.584 149.486C168.58 150.325 168.764 151.155 169.122 151.914C169.48 152.674 170.003 153.344 170.653 153.876C172.035 154.995 173.873 155.554 176.167 155.552C178.462 155.549 180.29 154.988 181.649 153.867C182.312 153.345 182.843 152.677 183.2 151.914C183.558 151.152 183.732 150.317 183.708 149.476V149.476Z" fill="#050505"/>
<path d="M206.457 145.247C204.208 144.072 201.71 143.451 199.171 143.435C197.526 143.435 196.266 143.627 195.391 144.01C194.515 144.394 194.078 144.924 194.078 145.6C194.078 146.31 194.545 146.827 195.48 147.152C196.544 147.452 197.642 147.616 198.747 147.638C200.972 147.786 202.44 147.905 203.152 147.994C205.166 148.261 206.654 148.757 207.614 149.482C208.089 149.839 208.469 150.306 208.72 150.843C208.972 151.38 209.088 151.971 209.058 152.563C209.058 154.258 208.302 155.574 206.792 156.511C205.281 157.448 203.109 157.914 200.277 157.91C196.17 157.91 192.975 157.007 190.693 155.201L192.159 153.275C194.602 154.789 197.423 155.588 200.299 155.58C202.18 155.58 203.639 155.321 204.679 154.804C205.673 154.302 206.17 153.614 206.17 152.741C206.17 151.721 205.518 151.041 204.213 150.7C203.531 150.522 201.692 150.337 198.696 150.146C196.044 149.968 194.184 149.613 193.115 149.081C191.872 148.462 191.25 147.42 191.247 145.953C191.247 144.446 191.955 143.256 193.37 142.383C194.785 141.509 196.784 141.073 199.365 141.073C202.833 141.073 205.739 141.864 208.083 143.448L206.457 145.247Z" fill="#050505"/>
<path d="M230.998 157.535H213.054V141.477H230.998V143.871H215.722V148.004H230.998V150.401H215.722V155.148H230.998V157.535Z" fill="#050505"/>
<path d="M161.969 115.843L167.678 125.524H160.376L148.806 106.067H139.273V125.524H132.898V99.7722H145.102L139.292 90.0246L132.918 79.2945V78.0038H154.951C156.8 77.987 158.634 78.3352 160.348 79.0283C162.062 79.7214 163.621 80.7457 164.936 82.0423C166.252 83.3389 167.297 84.8822 168.012 86.5833C168.727 88.2844 169.097 90.1098 169.102 91.9544C169.106 94.3692 168.477 96.743 167.276 98.8401C166.076 100.937 164.346 102.684 162.259 103.908L159.11 98.634C160.239 97.9507 161.172 96.9875 161.817 95.8382C162.462 94.6888 162.798 93.3924 162.792 92.0752C162.788 91.0524 162.582 90.0403 162.184 89.0975C161.787 88.1548 161.205 87.2999 160.475 86.5825C159.744 85.865 158.878 85.2991 157.926 84.9175C156.975 84.5359 155.957 84.3461 154.932 84.3591H143.139L150.651 96.8823L161.969 115.843Z" fill="#050505"/>
</g>
<rect x="1" y="1" width="300" height="234" stroke="#D9D9D9"/>
<defs>
<clipPath id="clip0_245_516">
<rect width="160" height="80" fill="white" transform="translate(71 78)"/>
</clipPath>
</defs>
</svg>
