<svg width="302" height="236" viewBox="0 0 302 236" fill="none" xmlns="http://www.w3.org/2000/svg">
<path d="M234.703 100H203.803C201.994 100 200.506 101.411 200.506 103.166V132.834C200.506 134.571 201.975 136 203.803 136H218.895V115.648H211.547V111.56C216.408 111.379 219.14 109.534 219.743 106.006H225.376V136H234.703C236.512 136 238 134.589 238 132.834V103.166C238 101.411 236.53 100 234.703 100Z" fill="#050505"/>
<path d="M64 116.661C64 109.787 69.6147 104.106 76.8121 104.106C80.4297 104.106 83.6327 105.517 85.8371 107.724L82.6153 110.42C81.1268 108.991 79.0731 108.086 76.8121 108.086C72.1018 108.086 68.4842 112.012 68.4842 116.679C68.4842 121.274 72.0641 125.272 76.8875 125.272C80.6181 125.272 84.0472 122.957 84.0472 119.845H76.8498V116.245H88.9083C88.9083 125.037 83.9718 129.107 76.9628 129.107C69.5582 129.107 64 123.463 64 116.661Z" fill="#050505"/>
<path d="M91.4894 128.691V103.419H95.7287V128.691H91.4894Z" fill="#050505"/>
<path d="M111.575 112.319H115.814V128.691H111.575V126.141C110.708 128.203 107.995 129.125 106.28 129.125C101.89 129.125 99.4596 126.285 99.4596 121.509V112.319H103.699V121.328C103.699 123.952 105.338 125.326 107.241 125.326C109.182 125.326 111.593 124.277 111.593 121.093V112.319H111.575Z" fill="#050505"/>
<path d="M118.659 120.496C118.659 115.304 123.011 111.903 127.929 111.903C130.887 111.903 133.298 113.17 134.862 115.051L131.866 117.331C131 116.317 129.53 115.684 128.004 115.684C125.046 115.684 122.936 117.71 122.936 120.478C122.936 123.21 125.046 125.308 128.004 125.308C129.53 125.308 131 124.675 131.866 123.662L134.862 125.942C133.298 127.841 130.887 129.089 127.929 129.089C123.011 129.107 118.659 125.67 118.659 120.496Z" fill="#050505"/>
<path d="M136.011 120.496C136.011 115.304 140.213 111.903 145.074 111.903C149.935 111.903 154.174 115.304 154.174 120.496C154.174 125.688 149.935 129.126 145.074 129.126C140.213 129.126 136.011 125.67 136.011 120.496ZM149.879 120.496C149.879 117.692 147.693 115.702 145.055 115.702C142.417 115.702 140.27 117.692 140.27 120.496C140.27 123.373 142.417 125.327 145.055 125.327C147.693 125.327 149.879 123.355 149.879 120.496Z" fill="#050505"/>
<path d="M155.87 123.644H159.846C159.846 124.766 160.863 125.815 162.653 125.815C164.33 125.815 165.423 125.001 165.423 123.952C165.423 123.047 164.688 122.613 163.407 122.342L161.146 121.781C157.302 120.804 156.322 118.832 156.322 116.77C156.322 114.219 158.96 111.903 162.672 111.903C165.705 111.903 169.135 113.369 169.097 117.023H165.046C165.046 115.901 163.991 115.196 162.785 115.196C161.466 115.196 160.562 115.938 160.562 116.951C160.562 117.783 161.41 118.289 162.389 118.488L165.121 119.194C168.946 120.135 169.643 122.45 169.643 123.97C169.643 127.298 166.176 129.126 162.71 129.126C159.337 129.107 155.946 127.154 155.87 123.644Z" fill="#050505"/>
<path d="M189.05 121.925H175.842C176.313 124.205 178.141 125.435 180.703 125.435C182.531 125.435 184.321 124.657 185.3 123.337L188.145 125.399C186.582 127.787 183.548 129.107 180.439 129.107C175.371 129.107 171.49 125.598 171.49 120.478C171.49 115.25 175.541 111.885 180.439 111.885C185.3 111.885 189.125 115.214 189.125 120.334C189.125 120.804 189.088 121.329 189.05 121.925ZM184.924 119.085C184.66 116.842 182.851 115.503 180.477 115.503C178.216 115.503 176.351 116.589 175.842 119.085H184.924Z" fill="#050505"/>
<rect x="1" y="1" width="300" height="234" stroke="#D9D9D9"/>
</svg>
