<svg width="302" height="236" viewBox="0 0 302 236" fill="none" xmlns="http://www.w3.org/2000/svg">
<g clip-path="url(#clip0_245_566)">
<path d="M70.0705 111.897C71.2399 111.914 72.4095 111.869 73.5741 111.762V112.676C72.9044 112.883 72.3105 113.282 71.8662 113.823C71.3542 114.41 70.8746 115.334 70.4274 116.596L63.7528 135.442C63.2607 135.399 62.7625 135.377 62.2579 135.377C61.7534 135.377 61.2626 135.399 60.7855 135.442L52.6347 115.281C51.9508 113.574 51.0726 112.721 50 112.721V111.762C52.1289 111.912 54.2872 111.986 56.4747 111.984C58.408 111.984 60.395 111.91 62.4355 111.762V112.721C61.8007 112.707 61.1659 112.744 60.537 112.831C60.3474 112.856 60.1673 112.929 60.0132 113.042C59.8591 113.155 59.7359 113.305 59.655 113.478C59.485 113.834 59.5242 114.41 59.7783 115.194L65.0104 129.05L68.2916 119.982C68.7824 118.572 69.0278 117.347 69.0278 116.307C69.0278 114.05 67.9117 112.84 65.6793 112.676V111.762C67.1044 111.852 68.5682 111.897 70.0705 111.897Z" fill="#050505"/>
<path d="M82.6629 133.104C82.8239 133.545 83.1521 133.905 83.5767 134.107C84.123 134.323 84.7087 134.422 85.2958 134.396V135.355C82.2599 135.23 80.2363 135.168 79.2247 135.168C78.2568 135.168 76.1359 135.23 72.8622 135.355V134.396C73.4528 134.421 74.0421 134.322 74.5925 134.107C74.8047 134.009 74.9951 133.87 75.1527 133.698C75.3102 133.526 75.4317 133.324 75.51 133.104C75.7203 132.465 75.8145 131.794 75.7884 131.122V116.73C75.7884 115.319 75.5729 114.298 75.1419 113.666C74.7108 113.035 73.9516 112.72 72.8641 112.721V111.763C73.8307 111.852 74.7756 111.897 75.6987 111.897C78.3932 111.897 80.6181 111.689 82.3733 111.272V131.122C82.3721 131.968 82.4686 132.629 82.6629 133.104ZM81.8258 100.936C82.5732 101.558 82.947 102.412 82.947 103.498C82.947 104.585 82.5732 105.446 81.8258 106.081C81.0784 106.702 80.07 107.013 78.8006 107.013C77.5062 107.013 76.4866 106.702 75.7417 106.081C74.9967 105.459 74.623 104.598 74.6205 103.498C74.6205 102.413 74.9942 101.559 75.7417 100.936C76.4891 100.313 77.5087 100.002 78.8006 100.004C80.0662 100.001 81.0746 100.312 81.8258 100.936Z" fill="#050505"/>
<path d="M97.1856 113.122C96.5827 112.396 95.6415 112.033 94.3622 112.033C93.7559 112.034 93.1534 112.129 92.5758 112.313C92.0254 112.472 91.5204 112.758 91.1015 113.148C91.881 113.383 92.573 113.844 93.0896 114.472C93.5809 115.122 93.8329 115.92 93.8035 116.734C93.8143 117.329 93.6539 117.915 93.3413 118.423C93.0286 118.93 92.5769 119.337 92.0395 119.596C91.4369 119.895 90.7708 120.044 90.098 120.031C89.1152 120.031 88.3297 119.697 87.7418 119.029C87.1433 118.329 86.8287 117.431 86.8598 116.512C86.8598 114.937 87.7081 113.66 89.4048 112.68C91.2659 111.654 93.5879 111.142 96.3709 111.142C99.4952 111.142 101.72 111.825 103.045 113.193C103.694 113.849 104.143 114.675 104.34 115.576C104.563 116.527 104.675 117.856 104.675 119.563V131.972C104.675 132.718 104.746 133.241 104.888 133.542C104.948 133.687 105.053 133.81 105.187 133.892C105.322 133.974 105.478 134.011 105.635 133.999C106.126 133.999 106.692 133.739 107.332 133.22L107.801 133.999C107.129 134.562 106.356 134.993 105.523 135.269C104.568 135.555 103.574 135.691 102.576 135.67C101.029 135.67 99.9131 135.328 99.228 134.644C98.5428 133.961 98.2002 133.07 98.2002 131.972C97.5097 133.155 96.4952 134.117 95.2759 134.745C94.0831 135.362 92.7587 135.681 91.4154 135.677C89.6714 135.677 88.2762 135.221 87.2298 134.307C86.1834 133.393 85.6583 132.12 85.6545 130.486C85.6545 128.897 86.1759 127.583 87.2185 126.544C88.2612 125.505 89.8757 124.584 92.0619 123.781L94.3827 122.889C95.6907 122.392 96.6356 121.884 97.2174 121.364C97.7991 120.844 98.0894 120.272 98.0881 119.648V116.105C98.0894 114.845 97.7885 113.85 97.1856 113.122ZM97.1408 122.533C96.5365 122.995 95.9064 123.423 95.2535 123.814C94.3555 124.414 93.5825 125.182 92.9775 126.076C92.4257 126.915 92.1504 127.958 92.1516 129.205C92.1516 130.395 92.412 131.282 92.9327 131.868C93.1888 132.157 93.506 132.386 93.8614 132.538C94.2168 132.69 94.6016 132.762 94.9881 132.748C96.1928 132.748 97.2273 132.126 98.0919 130.883V121.521C97.8378 121.912 97.5157 122.255 97.1408 122.533V122.533Z" fill="#050505"/>
<path d="M126.879 112.531C128.256 111.657 129.858 111.203 131.489 111.226C133.617 111.226 135.232 111.797 136.334 112.941C136.917 113.603 137.333 114.395 137.547 115.25C137.796 116.161 137.921 117.39 137.921 118.936V131.122C137.921 131.969 138.036 132.629 138.266 133.104C138.486 133.569 138.879 133.929 139.361 134.107C140.02 134.324 140.711 134.422 141.404 134.396V135.355C138.605 135.231 136.774 135.168 135.912 135.168C135.05 135.168 133.346 135.231 130.8 135.355V134.396C131.405 134.423 132.009 134.325 132.575 134.107C133.005 133.907 133.34 133.547 133.509 133.104C133.711 132.628 133.812 131.967 133.812 131.122V117.933C133.829 117.006 133.742 116.08 133.554 115.171C133.406 114.468 133.03 113.834 132.483 113.366C131.94 112.906 131.148 112.676 130.106 112.676C128.903 112.661 127.728 113.045 126.767 113.767C125.756 114.544 124.973 115.58 124.502 116.764C123.953 118.103 123.68 119.539 123.699 120.985V131.122C123.699 131.969 123.799 132.629 124 133.104C124.173 133.549 124.514 133.909 124.949 134.107C125.519 134.324 126.126 134.422 126.735 134.396V135.355C124.175 135.231 122.464 135.168 121.601 135.168C120.737 135.168 118.907 135.231 116.109 135.355V134.396C116.801 134.422 117.493 134.324 118.151 134.107C118.633 133.929 119.026 133.569 119.244 133.104C119.476 132.628 119.592 131.967 119.592 131.122V116.842C119.592 115.431 119.335 114.406 118.82 113.767C118.306 113.128 117.402 112.809 116.109 112.809V111.847C117.06 111.935 118.005 111.979 118.943 111.979C120.877 111.979 122.462 111.771 123.699 111.356V116.725C124.46 114.799 125.52 113.401 126.879 112.531Z" fill="#050505"/>
<path d="M154.695 113.111C153.959 112.464 152.914 112.141 151.56 112.141C149.402 112.141 147.892 112.683 147.028 113.767C147.65 113.917 148.202 114.275 148.592 114.782C148.982 115.288 149.187 115.913 149.172 116.551C149.172 117.324 148.929 117.93 148.445 118.367C147.96 118.805 147.309 119.024 146.492 119.026C146.149 119.042 145.807 118.981 145.491 118.845C145.176 118.71 144.896 118.504 144.672 118.244C144.234 117.726 144.014 117.042 144.014 116.193C144.014 115.005 144.729 113.921 146.158 112.941C147.012 112.401 147.94 111.988 148.914 111.716C150.101 111.377 151.33 111.212 152.565 111.226C153.683 111.207 154.798 111.361 155.869 111.682C156.703 111.919 157.469 112.351 158.102 112.943C158.789 113.633 159.286 114.488 159.542 115.427C159.803 116.37 159.933 117.676 159.933 119.343V132.023C159.933 132.78 160.041 133.329 160.256 133.671C160.472 134.013 160.833 134.183 161.34 134.182C161.697 134.186 162.049 134.102 162.366 133.938C162.733 133.737 163.077 133.499 163.393 133.225L163.907 134.005C163.372 134.406 162.925 134.717 162.568 134.937C162.185 135.171 161.772 135.35 161.34 135.47C160.816 135.613 160.275 135.681 159.733 135.672C158.258 135.672 157.235 135.305 156.663 134.57C156.091 133.835 155.804 132.849 155.801 131.612C154.908 133.082 153.837 134.125 152.587 134.741C151.405 135.345 150.098 135.664 148.77 135.674C147.775 135.685 146.788 135.5 145.866 135.127C145.011 134.782 144.278 134.193 143.756 133.434C143.229 132.665 142.966 131.708 142.966 130.564C142.935 129.513 143.232 128.478 143.814 127.601C144.449 126.726 145.263 125.995 146.202 125.459C147.531 124.694 148.911 124.02 150.332 123.443C150.63 123.319 151.359 123.022 152.52 122.552C153.681 122.082 154.518 121.607 155.031 121.127C155.543 120.651 155.8 120.131 155.801 119.566V116.73C155.801 114.966 155.433 113.76 154.695 113.111ZM154.684 122.39C154.164 122.685 153.078 123.235 151.425 124.038C150.644 124.397 149.898 124.826 149.194 125.319C148.553 125.791 148.019 126.395 147.63 127.089C147.198 127.835 146.982 128.748 146.983 129.83C146.983 131.151 147.318 132.15 147.987 132.826C148.656 133.503 149.542 133.84 150.644 133.839C152.667 133.839 154.386 132.688 155.801 130.387V121.437C155.508 121.836 155.125 122.162 154.684 122.39V122.39Z" fill="#050505"/>
<path d="M175.762 111.897V112.809H168.997V130.475C168.997 131.857 169.247 132.852 169.745 133.458C170.243 134.065 170.971 134.363 171.929 134.352C172.393 134.354 172.852 134.253 173.272 134.056C173.692 133.86 174.063 133.573 174.358 133.216C175.027 132.459 175.593 131.212 176.055 129.474L176.948 129.695C176.201 133.899 174.221 136 171.01 136C170.146 136.023 169.285 135.897 168.465 135.627C167.792 135.381 167.182 134.989 166.678 134.48C166.012 133.792 165.536 132.943 165.294 132.017C165.026 131.046 164.892 129.736 164.892 128.086V112.796H160.493V111.884H164.89V104.91C166.602 104.865 167.972 104.65 169.001 104.265V111.884L175.762 111.897Z" fill="#050505"/>
<path d="M198.411 133.494C198.925 134.126 199.829 134.442 201.122 134.441V135.399C200.172 135.31 199.227 135.265 198.287 135.265C196.324 135.265 194.74 135.48 193.534 135.91V130.52C192.786 132.392 191.748 133.773 190.419 134.663C189.126 135.542 187.596 136.009 186.031 136C183.977 136 182.393 135.421 181.278 134.262C180.693 133.604 180.29 132.806 180.106 131.946C179.849 130.745 179.732 129.519 179.759 128.291V116.842C179.759 115.431 179.506 114.406 179 113.767C178.494 113.128 177.594 112.809 176.3 112.809V111.846C177.252 111.935 178.196 111.979 179.134 111.979C181.054 111.979 182.639 111.771 183.89 111.356V129.289C183.873 130.228 183.94 131.168 184.09 132.095C184.203 132.77 184.541 133.386 185.05 133.844C185.555 134.297 186.323 134.525 187.349 134.525C188.502 134.535 189.623 134.149 190.525 133.432C191.508 132.645 192.269 131.617 192.734 130.449C193.284 129.121 193.558 127.697 193.539 126.261V116.842C193.539 115.431 193.282 114.406 192.768 113.767C192.253 113.128 191.349 112.809 190.054 112.809V111.846C191.005 111.935 191.95 111.979 192.889 111.979C194.822 111.979 196.408 111.771 197.645 111.356V130.43C197.642 131.84 197.898 132.861 198.411 133.494Z" fill="#050505"/>
<path d="M211.605 114.302C212.232 113.431 213.016 112.683 213.916 112.096C214.755 111.534 215.741 111.232 216.751 111.227C217.497 111.215 218.235 111.379 218.905 111.707C219.508 112.001 220.021 112.452 220.389 113.012C220.742 113.548 220.929 114.176 220.925 114.817C220.945 115.561 220.691 116.286 220.212 116.855C219.979 117.129 219.687 117.346 219.359 117.49C219.03 117.635 218.672 117.704 218.313 117.691C217.68 117.704 217.066 117.476 216.594 117.055C216.355 116.837 216.167 116.569 216.044 116.271C215.92 115.972 215.864 115.65 215.88 115.328C215.88 114.333 216.401 113.509 217.442 112.855C217.333 112.706 217.188 112.587 217.02 112.509C216.852 112.431 216.667 112.397 216.482 112.41C215.276 112.41 214.19 112.87 213.223 113.791C212.229 114.752 211.452 115.914 210.947 117.2C210.43 118.396 210.149 119.681 210.121 120.984V130.652C210.121 132.064 210.523 133.041 211.326 133.582C212.13 134.122 213.343 134.393 214.965 134.395V135.353C211.215 135.229 208.871 135.167 207.933 135.167C207.13 135.167 205.329 135.229 202.531 135.353V134.395C203.224 134.42 203.915 134.322 204.573 134.106C205.056 133.927 205.448 133.567 205.666 133.102C205.898 132.626 206.013 131.965 206.012 131.12V116.842C206.012 115.431 205.756 114.406 205.242 113.767C204.729 113.128 203.825 112.809 202.531 112.809V111.847C203.481 111.935 204.426 111.979 205.366 111.979C207.299 111.979 208.884 111.771 210.121 111.356V117.068C210.483 116.081 210.982 115.15 211.605 114.302V114.302Z" fill="#050505"/>
<path d="M239.176 132.871C238.368 133.818 237.373 134.588 236.252 135.131C235.03 135.723 233.686 136.021 232.328 136C230.155 136 228.276 135.506 226.692 134.519C225.096 133.519 223.833 132.07 223.063 130.354C222.23 128.563 221.813 126.502 221.813 124.17C221.813 121.529 222.237 119.234 223.086 117.288C223.934 115.341 225.136 113.844 226.692 112.797C228.247 111.751 230.066 111.227 232.15 111.227C234.891 111.227 237 112.055 238.477 113.711C239.954 115.367 240.695 117.881 240.699 121.252H226.417C226.303 122.22 226.251 123.195 226.262 124.17C226.262 126.175 226.593 127.928 227.254 129.429C227.916 130.929 228.783 132.08 229.855 132.882C230.822 133.647 232.015 134.07 233.249 134.085C236.314 134.085 238.557 132.563 239.976 129.518L240.891 129.874C240.515 130.973 239.933 131.99 239.176 132.871V132.871ZM235.928 116.217C235.614 114.955 235.123 113.953 234.454 113.209C234.149 112.853 233.768 112.568 233.34 112.374C232.912 112.181 232.446 112.084 231.976 112.091C231.036 112.091 230.123 112.409 229.386 112.993C228.598 113.596 227.932 114.519 227.389 115.762C226.846 117.005 226.499 118.546 226.35 120.385H236.308C236.377 118.985 236.249 117.582 235.928 116.217V116.217Z" fill="#050505"/>
<path d="M250.952 129.908C251.653 130.538 252.003 131.395 252.002 132.479C252.001 133.563 251.651 134.421 250.952 135.053C250.253 135.684 249.301 136 248.095 136C246.889 136 245.944 135.684 245.26 135.053C244.56 134.422 244.21 133.565 244.21 132.479C244.21 131.394 244.56 130.537 245.26 129.908C245.959 129.276 246.904 128.961 248.095 128.961C249.286 128.961 250.238 129.276 250.952 129.908Z" fill="#050505"/>
</g>
<rect x="1" y="1" width="300" height="234" stroke="#D9D9D9"/>
<defs>
<clipPath id="clip0_245_566">
<rect width="202" height="36" fill="white" transform="translate(50 100)"/>
</clipPath>
</defs>
</svg>
