<svg width="302" height="236" viewBox="0 0 302 236" fill="none" xmlns="http://www.w3.org/2000/svg">
<path d="M154.772 74.2128C154.772 75.9876 153.338 77.4257 151.572 77.4257C149.806 77.4257 148.373 75.9876 148.373 74.2128C148.373 72.4381 149.806 71 151.572 71C153.338 71 154.772 72.4381 154.772 74.2128Z" fill="#050505"/>
<path d="M131.505 110.01C131.603 109.926 135.446 106.582 135.446 106.582C143.663 100.699 151.831 88.4531 148.312 82.5091C149.794 85.1351 151.481 90.5506 149.523 96.7261C148.562 99.7752 146.509 103.11 143.726 105.803C141.318 107.983 139.137 110.155 137.679 111.443C136.779 112.299 135.817 113.237 134.784 114.277C134.251 114.815 133.833 115.486 133.701 116.293C133.379 118.25 134.644 120.037 136.648 120.415C141.295 121.414 148.792 111.825 146.587 108.207C148.379 110.646 146.832 115.706 146.224 117.579C144.674 122.319 140.636 126.518 135.784 125.719C130.916 124.917 127.618 120.308 128.415 115.423C128.779 113.218 129.916 111.338 131.505 110.01Z" fill="#050505"/>
<path d="M171.434 110.258C171.334 110.174 167.493 106.832 167.493 106.832C159.274 100.949 151.107 88.701 154.627 82.7594C153.142 85.383 151.46 90.8008 153.413 96.9763C154.378 100.025 156.431 103.362 159.214 106.054C161.621 108.233 163.8 110.405 165.261 111.694C166.158 112.552 167.12 113.487 168.155 114.528C168.689 115.065 169.106 115.737 169.234 116.543C169.555 118.5 168.293 120.287 166.286 120.666C161.642 121.664 154.143 112.077 156.349 108.457C154.555 110.896 156.102 115.956 156.715 117.827C158.262 122.567 162.304 126.766 167.155 125.967C172.023 125.165 175.321 120.556 174.522 115.673C174.158 113.466 173.018 111.586 171.434 110.258Z" fill="#050505"/>
<path d="M148.07 90.1391C152.29 67.5113 109.763 99.1953 104.609 71.6922C118.542 73.3383 153.075 68.7903 148.07 90.1391Z" fill="#050505"/>
<path d="M154.842 90.2069C155.109 69.4614 178.383 87.0268 180.73 74.4934C172.534 73.4552 151.134 71.0327 154.842 90.2069Z" fill="#050505"/>
<path d="M75.4443 165H64V136.714H75.4443C78.2012 136.714 83.4164 138.042 83.4164 143.074V158.64C83.4164 163.672 78.2034 165 75.4443 165ZM66.5424 162.428H75.4467C75.6657 162.425 80.8764 162.36 80.8764 158.64V143.074C80.8764 139.328 75.6681 139.286 75.4467 139.286H66.5424V162.428Z" fill="#050505"/>
<path d="M204.958 136.714H202.415V165H204.958V136.714Z" fill="#050505"/>
<path d="M168.796 136.714H150.08V139.265H158.284V165H160.824V139.265H168.796V136.714Z" fill="#050505"/>
<path d="M235.469 136.714L225.882 148.69L216.533 136.714H213.738V164.883H216.278V140.525L225.857 152.794L235.457 140.801V165H238V136.714H235.469Z" fill="#050505"/>
<path d="M121.774 136.714L111.607 161.229L101.439 136.714H98.6708L110.413 165H112.802L124.542 136.714H121.774Z" fill="#050505"/>
<path d="M126.164 165L136.332 140.368L146.499 165H149.267L137.525 136.714H135.138L123.396 165H126.164Z" fill="#050505"/>
<path d="M178.268 139.379H186.238C186.252 139.379 187.755 139.393 189.193 139.954C190.86 140.604 191.67 141.668 191.67 143.205V145.639C191.67 147.175 190.86 148.239 189.193 148.889C187.755 149.45 186.252 149.464 186.241 149.464H181.92L192.882 165H195.995L186.821 151.997C189.669 151.821 194.213 150.348 194.213 145.639V143.205C194.213 138.161 188.998 136.828 186.241 136.828H175.726V164.944H178.268V139.379Z" fill="#050505"/>
<path d="M92.8473 136.714H90.305V165H92.8473V136.714Z" fill="#050505"/>
<rect x="1" y="1" width="300" height="234" stroke="#D9D9D9"/>
</svg>
