<svg width="302" height="236" viewBox="0 0 302 236" fill="none" xmlns="http://www.w3.org/2000/svg">
<g clip-path="url(#clip0_245_540)">
<path d="M42.5573 93.1391C43.3954 93.0288 44.247 93.1739 45.0029 93.5556C45.7589 93.9373 46.3847 94.5383 46.8002 95.2816L65.8659 118.543C65.9387 118.638 66.0332 118.714 66.1414 118.765C66.257 118.808 66.3839 118.808 66.4995 118.765H66.9404C67.1608 118.765 67.3261 118.765 67.3261 118.348V93.8069C67.3261 93.2783 67.5465 93 68.0975 93H72.1476L72.4231 93.1948C72.509 93.265 72.5675 93.3635 72.5884 93.473C72.6089 93.5214 72.6194 93.5735 72.6194 93.6261C72.6194 93.6787 72.6089 93.7307 72.5884 93.7791V120.268C72.5884 123.3 71.5139 124.191 69.2271 124.191H66.1138C65.2774 124.273 64.4353 124.109 63.6893 123.718C62.9185 123.35 62.2821 122.747 61.8709 121.993L42.7777 98.6762L42.4746 98.4535C42.3662 98.4252 42.2524 98.4252 42.144 98.4535H41.7032C41.4277 98.4535 41.345 98.5926 41.345 98.8987V123.467C41.345 123.996 41.097 124.274 40.5184 124.274H36.4684L36.1929 124.107C36.1184 124.028 36.062 123.933 36.0276 123.829C36.0007 123.72 36.0007 123.605 36.0276 123.495V97.118C36.0276 94.113 37.1296 93.2226 39.3613 93.2226L42.5573 93.1391Z" fill="#050505"/>
<path d="M110.582 93.1389C112.648 93.1389 113.585 94.0571 113.585 96.0605V99.3159C113.697 99.9932 113.581 100.689 113.254 101.291C112.92 101.885 112.395 102.347 111.767 102.599L87.3285 117.596C87.216 117.677 87.1221 117.782 87.053 117.902C87.0269 118.04 87.0269 118.182 87.053 118.32V118.709C87.053 118.988 87.1908 119.043 87.4938 119.043H112.759C112.87 119.03 112.984 119.042 113.09 119.079C113.196 119.117 113.293 119.178 113.372 119.258C113.452 119.338 113.512 119.436 113.549 119.543C113.586 119.651 113.598 119.765 113.585 119.878V123.3C113.599 123.411 113.599 123.523 113.585 123.634C113.537 123.737 113.472 123.831 113.392 123.912C113.323 123.999 113.225 124.058 113.117 124.079C113.011 124.123 112.892 124.123 112.786 124.079H83.9121C81.8458 124.079 80.8815 123.161 80.8815 121.158V117.819C80.7506 117.163 80.8582 116.481 81.1845 115.899C81.4902 115.303 81.999 114.838 82.6172 114.591L107.138 99.5385C107.262 99.4718 107.36 99.3636 107.414 99.2324C107.454 99.1057 107.454 98.9696 107.414 98.8429V98.4255C107.414 98.203 107.221 98.0638 106.973 98.0638H81.8458C81.3498 98.0638 81.0743 97.8133 81.0743 97.229V93.8345C81.046 93.7345 81.046 93.6285 81.0743 93.5285C81.1023 93.4218 81.1596 93.3253 81.2396 93.2502L81.5151 93.0554H81.8182L110.582 93.1389Z" fill="#050505"/>
<path d="M155.188 93.1392C155.739 93.1392 156.014 93.3896 156.014 93.9461V97.4798C156.014 98.0085 155.739 98.2589 155.188 98.2589H140.806V123.301C140.82 123.411 140.82 123.524 140.806 123.634C140.772 123.738 140.715 123.833 140.641 123.913C140.566 123.988 140.474 124.045 140.374 124.078C140.274 124.112 140.167 124.122 140.062 124.107H136.177C135.626 124.107 135.351 123.857 135.351 123.301V98.2589H120.941C120.842 98.2848 120.738 98.2848 120.638 98.2589C120.533 98.2306 120.437 98.1727 120.363 98.0919L120.197 97.8414C120.184 97.7306 120.184 97.6184 120.197 97.5076V93.9739C120.169 93.8739 120.169 93.7678 120.197 93.6678C120.225 93.5612 120.283 93.4648 120.363 93.3897L120.638 93.1949H120.941L155.188 93.1392Z" fill="#050505"/>
<path d="M169.983 106.996C170.063 106.968 170.15 106.968 170.231 106.996C170.312 106.972 170.398 106.972 170.479 106.996C170.54 107.059 170.587 107.135 170.617 107.218C170.632 107.31 170.632 107.404 170.617 107.496V110.14C170.629 110.232 170.629 110.326 170.617 110.418C170.581 110.498 170.535 110.573 170.479 110.641C170.406 110.703 170.322 110.751 170.231 110.78H156.455L156.235 110.641C156.218 110.567 156.218 110.491 156.235 110.418C156.209 110.327 156.209 110.231 156.235 110.14V107.496C156.205 107.406 156.205 107.309 156.235 107.218C156.263 107.134 156.31 107.058 156.373 106.996C156.435 106.933 156.51 106.885 156.593 106.857C156.682 106.827 156.779 106.827 156.868 106.857L169.983 106.996Z" fill="#050505"/>
<path d="M182.629 112.7H203.045V98.37C203.045 98.0918 202.907 97.9527 202.687 97.9527H202.411C202.059 97.9626 201.72 98.0898 201.447 98.3144L182.657 111.42C182.553 111.491 182.469 111.587 182.409 111.698C182.38 111.826 182.38 111.959 182.409 112.087V112.366C182.392 112.41 182.392 112.46 182.409 112.505H182.546L182.629 112.7ZM199.077 94.0852C200.166 93.2532 201.517 92.848 202.879 92.9444H205.001C207.122 92.9444 208.169 93.7513 208.169 96.7007V112.505H212.082C212.66 112.505 212.936 112.755 212.936 113.284V116.261C212.936 116.79 212.66 117.04 212.082 117.04H208.197V123.106C208.197 123.662 207.949 123.913 207.425 123.913H203.761C203.654 123.953 203.537 123.953 203.43 123.913C203.325 123.884 203.229 123.826 203.155 123.746C203.075 123.665 203.01 123.571 202.962 123.467C202.949 123.357 202.949 123.244 202.962 123.134V117.179H178.882C178.574 117.249 178.254 117.249 177.945 117.179C177.641 117.067 177.36 116.897 177.119 116.678C176.889 116.461 176.71 116.195 176.595 115.899C176.48 115.598 176.433 115.275 176.458 114.953V112.171C176.37 111.554 176.466 110.924 176.733 110.362C177.006 109.804 177.425 109.333 177.945 108.999L199.077 94.0852Z" fill="#050505"/>
<path d="M224.315 103.267C224.315 105.382 225.307 106.578 229.191 106.578H242.967C246.769 106.578 247.816 105.382 247.816 103.267V101.486C247.816 99.0378 246.714 98.0083 243.766 98.0083H228.502C225.747 98.0083 224.425 99.1213 224.425 101.486L224.315 103.267ZM224.315 116.038C224.315 118.487 225.499 119.405 228.392 119.405H243.821C246.576 119.405 247.899 118.403 247.899 116.038V113.924C247.899 111.726 246.797 110.474 243.022 110.474H229.246C225.417 110.474 224.37 111.726 224.37 113.924L224.315 116.038ZM244.73 93.2227C250.681 93.2227 252.996 95.6711 252.996 100.401V102.544C253.075 103.699 252.837 104.855 252.307 105.883C251.77 106.91 250.971 107.775 249.993 108.387C251.043 108.905 251.916 109.729 252.5 110.752C253.079 111.761 253.33 112.929 253.216 114.091V116.873C253.216 121.464 251.205 124.247 245.419 124.247H226.849C221.064 124.247 219.08 121.464 219.08 116.873V114.091C218.966 112.929 219.217 111.761 219.796 110.752C220.373 109.723 221.248 108.898 222.303 108.387C221.309 107.793 220.497 106.933 219.957 105.901C219.417 104.87 219.171 103.708 219.245 102.544V100.401C219.245 95.4764 221.532 93.2227 227.511 93.2227H244.73Z" fill="#050505"/>
<path d="M39.196 138.771H44.4858C45.5052 138.771 45.891 138.298 45.891 137.352V136.823C45.891 135.877 45.5052 135.404 44.4858 135.404H39.2511L39.196 138.771ZM44.7063 133.846C46.6349 133.846 47.4614 134.792 47.4614 136.461V137.185C47.4614 138.687 46.8553 139.633 45.4226 139.633L47.7369 142.416H46.1389C46.0802 142.384 46.0322 142.336 46.0012 142.277L43.7971 139.494H39.1684V142.277C39.1684 142.444 39.1684 142.527 38.948 142.527H37.8735C37.7357 142.527 37.6531 142.527 37.6531 142.277V133.874H37.7908H37.9561L44.7063 133.846Z" fill="#050505"/>
<path d="M60.3831 133.874C60.5209 133.874 60.6036 133.874 60.6036 134.124V135.098C60.6036 135.265 60.6036 135.348 60.3831 135.348H54.8728C53.33 135.348 52.834 135.849 52.834 137.407V137.714H60.3831C60.5209 137.714 60.6036 137.713 60.6036 137.936V138.854H52.8891V139.439C52.8891 140.997 53.3851 141.498 54.928 141.498H60.4383C60.576 141.498 60.6587 141.498 60.6587 141.748V142.722C60.6587 142.889 60.6587 142.972 60.4383 142.972H54.928C52.3657 142.972 51.4014 142.026 51.4014 139.55V137.352C51.4014 134.875 52.3657 133.929 54.928 133.929L60.3831 133.874Z" fill="#050505"/>
<path d="M65.9209 133.874V142.416H64.7087C64.7087 142.416 64.4883 142.416 64.4883 142.165V133.623C64.4883 133.456 64.4882 133.373 64.7087 133.373L65.9209 133.874Z" fill="#050505"/>
<path d="M72.2577 133.874C72.5033 133.85 72.7504 133.898 72.9701 134.011C73.1897 134.124 73.3727 134.299 73.4975 134.514L79.0078 141.303H79.3385V134.152C79.3385 133.957 79.3385 133.901 79.5589 133.901H80.6334C80.7987 133.901 80.8538 133.901 80.8538 134.152V141.803C80.8538 142.666 80.5507 142.944 79.8895 142.944H79.063C78.8246 142.971 78.5839 142.922 78.3742 142.805C78.1542 142.684 77.9654 142.513 77.8231 142.304L72.3128 135.515H72.0649V142.777C72.0649 142.944 72.0649 143 71.8169 143H70.7424C70.5771 143 70.522 143 70.522 142.777V135.042C70.522 134.18 70.8251 133.929 71.4863 133.929L72.2577 133.874Z" fill="#050505"/>
<path d="M86.006 133.874L90.0836 141.247H90.3867L94.4092 133.874H95.9521C96.1174 133.874 96.145 133.874 95.9521 134.152L91.9847 142.221C91.6265 142.861 91.2959 143.028 90.855 143.028H90.2489C89.9789 143.036 89.7118 142.969 89.4775 142.833C89.2626 142.683 89.099 142.469 89.0091 142.221L84.5733 134.124C84.5733 133.957 84.5733 133.846 84.5733 133.846L86.006 133.874Z" fill="#050505"/>
<path d="M108.46 133.874C108.598 133.874 108.681 133.874 108.681 134.124V135.098C108.681 135.265 108.681 135.348 108.46 135.348H102.95C101.435 135.348 100.939 135.849 100.939 137.407V137.714H108.543C108.681 137.714 108.764 137.713 108.764 137.936V138.854H101.077V139.439C101.077 140.997 101.573 141.498 103.088 141.498H108.598C108.736 141.498 108.819 141.498 108.819 141.748V142.722C108.819 142.889 108.819 142.972 108.598 142.972H103.088C100.498 142.972 99.5338 142.026 99.5338 139.55V137.352C99.5338 134.875 100.498 133.929 103.088 133.929L108.46 133.874Z" fill="#050505"/>
<path d="M114.659 133.874C114.907 133.85 115.155 133.898 115.376 134.013C115.6 134.117 115.784 134.293 115.899 134.514L121.41 141.303H121.74V134.152C121.74 133.957 121.74 133.901 121.961 133.901H123.063C123.2 133.901 123.283 133.901 123.283 134.152V141.804C123.283 142.666 122.952 142.944 122.291 142.944H121.382C121.136 142.968 120.889 142.92 120.67 142.807C120.45 142.694 120.267 142.519 120.142 142.304L114.632 135.515H114.439V142.777C114.439 142.944 114.439 143 114.191 143H113.117C112.951 143 112.896 143 112.896 142.777V135.042C112.896 134.18 113.199 133.929 113.86 133.929L114.659 133.874Z" fill="#050505"/>
<path d="M137.279 133.874C137.445 133.874 137.5 133.874 137.5 134.124V135.07C137.5 135.237 137.5 135.293 137.279 135.293H133.091V142.666C133.091 142.833 133.091 142.917 132.871 142.917H131.714C131.576 142.917 131.493 142.917 131.493 142.666V135.265H127.195V134.236C127.195 134.069 127.195 133.985 127.416 133.985L137.279 133.874Z" fill="#050505"/>
<path d="M148.631 133.874C148.631 133.874 148.823 133.874 148.879 134.013L152.626 138.938L156.4 134.013H157.915C157.915 134.013 158.081 134.013 157.915 134.236L153.452 139.967V142.527C153.452 142.722 153.452 142.778 153.232 142.778H152.13C151.964 142.778 151.882 142.777 151.882 142.527V139.967L147.198 133.957L148.631 133.874Z" fill="#050505"/>
<path d="M162.489 139.438C162.489 140.996 162.957 141.497 164.473 141.497H168.275C169.818 141.497 170.258 140.996 170.258 139.438V137.602C170.258 136.016 169.818 135.515 168.275 135.515H164.473C162.985 135.515 162.489 136.016 162.489 137.602V139.438ZM168.33 133.873C170.892 133.873 171.884 134.82 171.884 137.296V139.438C171.884 141.915 170.892 142.861 168.33 142.861H164.473C162.048 142.861 160.946 141.915 160.946 139.438V137.24C160.946 134.764 161.938 133.818 164.473 133.818L168.33 133.873Z" fill="#050505"/>
<path d="M177.312 133.873C177.449 133.873 177.532 133.873 177.532 134.124V139.438C177.532 140.996 178.001 141.497 179.516 141.497H183.042C184.585 141.497 185.054 140.996 185.054 139.438V134.207C185.054 134.04 185.054 133.957 185.274 133.957H186.321C186.486 133.957 186.569 133.957 186.569 134.207V139.438C186.569 141.915 185.605 142.861 183.015 142.861H179.406C176.954 142.861 175.852 141.915 175.852 139.438V134.068C175.852 133.901 175.852 133.818 176.072 133.818L177.312 133.873Z" fill="#050505"/>
<path d="M192.382 138.771H197.672C198.692 138.771 199.077 138.298 199.077 137.352V136.823C199.077 135.877 198.692 135.432 197.672 135.432H192.41V138.743L192.382 138.771ZM197.893 133.846C199.849 133.846 200.648 134.792 200.648 136.489V137.185C200.648 138.687 200.069 139.633 198.636 139.633L200.951 142.416V142.722H199.435C199.426 142.676 199.426 142.629 199.435 142.583L197.149 139.939H192.492V142.722C192.492 142.889 192.492 142.972 192.272 142.972H191.142C190.977 142.972 190.922 142.972 190.922 142.722V134.375C190.922 134.375 190.922 134.375 190.922 134.208V134.069H197.837L197.893 133.846Z" fill="#050505"/>
<path d="M213.404 133.874V135.07H206.764C206.158 135.07 205.938 135.404 205.938 135.988V136.656C205.938 137.24 206.186 137.574 206.764 137.574H211.613C211.892 137.49 212.189 137.49 212.467 137.574C212.748 137.657 213.004 137.81 213.211 138.019C213.415 138.22 213.566 138.469 213.652 138.743C213.721 139.026 213.721 139.322 213.652 139.605V140.663C213.679 140.946 213.641 141.231 213.541 141.497C213.441 141.762 213.281 142.001 213.073 142.193C212.874 142.399 212.628 142.551 212.357 142.638C212.086 142.708 211.802 142.708 211.531 142.638H204.395C204.229 142.638 204.147 142.638 204.147 142.388V141.414C204.147 141.247 204.147 141.164 204.395 141.164H211.31C211.916 141.164 212.164 140.83 212.164 140.245V139.717C212.164 139.132 211.889 138.799 211.338 138.799H206.461C206.182 138.881 205.886 138.881 205.607 138.799C205.331 138.723 205.082 138.568 204.891 138.353C204.688 138.146 204.529 137.9 204.422 137.63C204.367 137.345 204.367 137.052 204.422 136.767V135.849C204.367 135.574 204.367 135.29 204.422 135.014C204.518 134.739 204.679 134.49 204.891 134.291C205.097 134.095 205.341 133.944 205.607 133.846C205.878 133.776 206.162 133.776 206.434 133.846L213.404 133.874Z" fill="#050505"/>
<path d="M226.987 133.874C227.125 133.874 227.207 133.874 227.207 134.124V135.098C227.207 135.265 227.207 135.348 226.987 135.348H221.477C219.934 135.348 219.466 135.849 219.466 137.407V137.714H226.987C227.152 137.714 227.207 137.713 227.207 137.936V138.854H219.521V139.439C219.521 140.997 219.989 141.498 221.532 141.498H227.042C227.18 141.498 227.263 141.498 227.263 141.748V142.722C227.263 142.889 227.263 142.972 227.042 142.972H221.532C219.107 142.972 218.005 142.026 218.005 139.55V137.352C218.005 134.875 218.97 133.929 221.532 133.929L226.987 133.874Z" fill="#050505"/>
<path d="M232.552 133.874V139.439C232.552 140.997 233.021 141.498 234.536 141.498H239.606C239.771 141.498 239.881 141.498 239.881 141.72V142.75C239.881 142.917 239.881 143 239.606 143H234.398C231.809 143 230.844 142.054 230.844 139.578V134.208H232.167L232.552 133.874Z" fill="#050505"/>
<path d="M252.858 133.874C252.996 133.874 253.078 133.874 253.078 134.124V135.098C253.078 135.265 253.078 135.348 252.858 135.348H247.348C245.832 135.348 245.336 135.849 245.336 137.407V137.797H252.83C252.996 137.797 253.051 137.797 253.051 138.047V138.882H245.447V142.443C245.447 142.61 245.447 142.694 245.254 142.694H244.124C243.959 142.694 243.876 142.694 243.876 142.443V137.073C243.876 134.597 244.84 133.651 247.403 133.651L252.858 133.874Z" fill="#050505"/>
<path d="M257.487 93.4731V94.0574H258.864V97.7024H259.443V94.1409H260.82V93.5566L257.487 93.4731ZM265.036 93.4731L263.796 96.4503L262.639 93.4731H261.647V97.7024H262.225V94.1409L263.658 97.7024H264.044L265.421 94.1409V97.7024H266V93.5566L265.036 93.4731Z" fill="#050505"/>
</g>
<rect x="1" y="1" width="300" height="234" stroke="#D9D9D9"/>
<defs>
<clipPath id="clip0_245_540">
<rect width="230" height="50" fill="white" transform="translate(36 93)"/>
</clipPath>
</defs>
</svg>
