<svg width="302" height="236" viewBox="0 0 302 236" fill="none" xmlns="http://www.w3.org/2000/svg">
<g clip-path="url(#clip0_245_582)">
<path d="M53 138.151H57.6111L61.6162 153.646L65.2101 138.151H70.0552L73.6881 153.646L77.7676 138.151H82.2051L76.0096 159.31H71.5722L67.5671 143.53L63.6435 159.31H59.1706L53 138.151Z" fill="#1A1A1A"/>
<path d="M101.819 149.959H87.1068C87.1493 151.931 87.6278 153.446 88.5564 154.507C89.4815 155.567 90.7822 156.097 92.4622 156.097C93.6602 156.097 94.6703 155.787 95.4891 155.186C96.3113 154.574 96.8572 153.731 97.1301 152.649H101.585C101.181 154.855 100.118 156.631 98.3918 157.979C96.6658 159.324 94.5994 160 92.1893 160C89.1696 160 86.7913 158.99 85.0617 156.976C83.3321 154.965 82.4637 152.194 82.4637 148.661C82.4637 145.128 83.3356 142.434 85.0794 140.449C86.8232 138.46 89.2334 137.464 92.3027 137.464C95.3721 137.464 97.6298 138.435 99.3382 140.378C101.047 142.317 101.901 144.989 101.901 148.383C101.901 148.686 101.883 149.166 101.84 149.817C101.826 149.885 101.823 149.927 101.823 149.956L101.819 149.959ZM97.2045 146.7C97.1903 144.978 96.7508 143.637 95.8789 142.691C95.007 141.748 93.7772 141.274 92.1858 141.274C90.5944 141.274 89.485 141.733 88.6131 142.662C87.7412 143.594 87.2344 144.936 87.0891 146.7H97.2045Z" fill="#1A1A1A"/>
<path d="M122.504 149.959H107.795C107.834 151.931 108.316 153.446 109.241 154.507C110.162 155.567 111.467 156.097 113.147 156.097C114.345 156.097 115.355 155.787 116.177 155.186C116.996 154.574 117.545 153.731 117.818 152.649H122.27C121.866 154.855 120.802 156.631 119.076 157.979C117.35 159.324 115.28 160 112.87 160C109.854 160 107.476 158.99 105.743 156.976C104.01 154.965 103.141 152.194 103.141 148.661C103.141 145.128 104.013 142.434 105.76 140.449C107.504 138.46 109.918 137.464 112.987 137.464C116.057 137.464 118.314 138.435 120.019 140.378C121.728 142.317 122.575 144.989 122.575 148.383C122.575 148.686 122.557 149.166 122.521 149.817C122.507 149.885 122.5 149.927 122.5 149.956L122.504 149.959ZM117.893 146.7C117.878 144.978 117.439 143.637 116.567 142.691C115.695 141.748 114.465 141.274 112.874 141.274C111.368 141.274 110.173 141.733 109.301 142.662C108.429 143.594 107.926 144.936 107.781 146.7H117.896H117.893Z" fill="#1A1A1A"/>
<path d="M139.346 130.426H143.685V159.31H139.407V156.549C138.492 157.737 137.514 158.609 136.454 159.16C135.402 159.723 134.196 160 132.843 160C130.145 160 127.962 158.972 126.3 156.93C124.63 154.884 123.797 152.18 123.797 148.821C123.797 145.462 124.63 142.676 126.3 140.591C127.962 138.506 130.131 137.464 132.804 137.464C134.221 137.464 135.476 137.738 136.564 138.275C137.649 138.816 138.581 139.645 139.346 140.759V130.419V130.426ZM133.838 141.41C132.088 141.41 130.73 142.064 129.766 143.37C128.795 144.68 128.309 146.515 128.309 148.878C128.309 151.24 128.798 152.884 129.777 154.154C130.751 155.421 132.109 156.054 133.842 156.054C135.575 156.054 137.039 155.417 138 154.144C138.964 152.87 139.442 151.016 139.442 148.586C139.442 146.156 138.971 144.448 138.017 143.231C137.067 142.018 135.674 141.413 133.838 141.413V141.41Z" fill="#1A1A1A"/>
<path d="M146.594 152.82H149.001C149.065 154.261 149.611 155.428 150.628 156.321C151.656 157.221 152.967 157.666 154.569 157.666C156.299 157.666 157.663 157.321 158.659 156.634C159.655 155.948 160.151 155.019 160.151 153.841C160.151 152.155 158.308 150.87 154.626 149.981C154.573 149.97 154.541 149.963 154.527 149.963C151.557 149.244 149.568 148.451 148.558 147.59C147.548 146.725 147.041 145.519 147.041 143.982C147.041 142.189 147.704 140.734 149.026 139.62C150.348 138.503 152.067 137.941 154.193 137.941C156.522 137.941 158.379 138.524 159.762 139.698C161.14 140.869 161.902 142.491 162.048 144.569H159.606C159.499 143.16 158.975 142.061 158.025 141.264C157.071 140.478 155.781 140.079 154.154 140.079C152.737 140.079 151.603 140.406 150.759 141.057C149.912 141.716 149.49 142.577 149.49 143.648C149.49 145.501 151.379 146.875 155.158 147.761C155.647 147.878 156.019 147.967 156.27 148.017C158.642 148.604 160.286 149.34 161.211 150.216C162.133 151.091 162.601 152.322 162.601 153.902C162.601 155.666 161.874 157.107 160.421 158.214C158.968 159.324 157.057 159.879 154.686 159.879C152.315 159.879 150.344 159.239 148.888 157.958C147.427 156.673 146.662 154.969 146.598 152.82H146.594Z" fill="#1A1A1A"/>
<path d="M168.69 132.483V138.464H172.535V140.424H168.69V155.627C168.69 156.513 168.8 157.104 169.019 157.389C169.243 157.677 169.64 157.823 170.214 157.823C170.458 157.823 170.735 157.801 171.05 157.755C171.366 157.709 171.855 157.616 172.517 157.47L172.535 159.388C171.95 159.552 171.419 159.662 170.933 159.737C170.455 159.805 169.997 159.84 169.572 159.84C168.374 159.84 167.524 159.541 167.027 158.929C166.531 158.321 166.287 157.218 166.287 155.627V140.424H163.451V138.464H166.287V132.483H168.69Z" fill="#1A1A1A"/>
<path d="M174.765 159.31V138.467H177.09V142.118C177.689 140.719 178.521 139.67 179.578 138.98C180.641 138.286 181.942 137.941 183.491 137.941H183.767V140.47H183.455C181.385 140.47 179.833 141.086 178.794 142.317C177.759 143.544 177.246 145.38 177.246 147.825V159.317H174.761L174.765 159.31Z" fill="#1A1A1A"/>
<path d="M186.858 149.347V149.468C186.858 152.019 187.471 154.048 188.697 155.553C189.916 157.065 191.557 157.819 193.613 157.819C195.24 157.819 196.608 157.378 197.7 156.495C198.795 155.609 199.458 154.41 199.688 152.877H202.091C201.832 154.997 200.921 156.688 199.358 157.965C197.795 159.242 195.828 159.875 193.464 159.875C190.636 159.875 188.417 158.915 186.815 156.99C185.217 155.072 184.412 152.404 184.412 148.995C184.412 145.587 185.217 142.797 186.829 140.851C188.435 138.905 190.671 137.93 193.535 137.93C196.399 137.93 198.494 138.862 200.053 140.723C201.606 142.587 202.385 145.192 202.385 148.536V149.34H186.854L186.858 149.347ZM186.9 147.412L199.904 147.43C199.805 145.131 199.181 143.32 198.04 142.007C196.906 140.691 195.389 140.033 193.503 140.033C191.618 140.033 190.058 140.705 188.864 142.036C187.669 143.374 187.021 145.163 186.904 147.412H186.9Z" fill="#1A1A1A"/>
<path d="M206.451 149.347V149.468C206.451 152.019 207.064 154.048 208.287 155.553C209.513 157.065 211.15 157.819 213.213 157.819C214.84 157.819 216.201 157.378 217.293 156.495C218.391 155.609 219.054 154.41 219.292 152.877H221.691C221.432 154.997 220.521 156.688 218.958 157.965C217.395 159.242 215.428 159.875 213.061 159.875C210.236 159.875 208.021 158.915 206.422 156.99C204.817 155.072 204.016 152.404 204.016 148.995C204.016 145.587 204.82 142.797 206.429 140.851C208.042 138.905 210.278 137.93 213.146 137.93C216.013 137.93 218.101 138.862 219.657 140.723C221.216 142.587 221.992 145.192 221.992 148.536V149.34H206.461L206.451 149.347ZM206.49 147.412L219.504 147.43C219.398 145.131 218.771 143.32 217.636 142.007C216.499 140.691 214.985 140.033 213.093 140.033C211.2 140.033 209.651 140.705 208.457 142.036C207.262 143.374 206.614 145.163 206.493 147.412H206.49Z" fill="#1A1A1A"/>
<path d="M227.805 132.483V138.464H231.658V140.424H227.805V155.627C227.805 156.513 227.919 157.104 228.142 157.389C228.358 157.677 228.759 157.823 229.333 157.823C229.577 157.823 229.857 157.801 230.173 157.755C230.481 157.709 230.974 157.616 231.637 157.47L231.661 159.388C231.077 159.552 230.538 159.662 230.056 159.737C229.574 159.805 229.117 159.84 228.688 159.84C227.49 159.84 226.639 159.541 226.15 158.929C225.65 158.321 225.406 157.218 225.406 155.627V140.424H222.574V138.464H225.406V132.483H227.809H227.805Z" fill="#1A1A1A"/>
<path d="M233.005 152.82H235.408C235.471 154.261 236.017 155.428 237.038 156.321C238.059 157.221 239.374 157.666 240.976 157.666C242.705 157.666 244.066 157.321 245.066 156.634C246.065 155.948 246.558 155.019 246.558 153.841C246.558 152.155 244.718 150.87 241.032 149.981C240.979 149.97 240.944 149.963 240.937 149.963C237.967 149.244 235.975 148.451 234.965 147.59C233.951 146.725 233.451 145.519 233.451 143.982C233.451 142.189 234.11 140.734 235.429 139.62C236.754 138.503 238.477 137.941 240.596 137.941C242.925 137.941 244.782 138.524 246.165 139.698C247.547 140.869 248.305 142.491 248.454 144.569H246.012C245.902 143.16 245.378 142.061 244.428 141.264C243.478 140.478 242.188 140.079 240.565 140.079C239.143 140.079 238.013 140.406 237.162 141.057C236.318 141.716 235.893 142.577 235.893 143.648C235.893 145.501 237.786 146.875 241.56 147.761C242.057 147.878 242.429 147.967 242.677 148.017C245.045 148.604 246.693 149.34 247.618 150.216C248.539 151.091 249 152.322 249 153.902C249 155.666 248.273 157.107 246.82 158.214C245.367 159.324 243.46 159.879 241.089 159.879C238.718 159.879 236.744 159.239 235.287 157.958C233.83 156.673 233.065 154.969 233.001 152.82H233.005Z" fill="#1A1A1A"/>
<path d="M139.226 128.971C139.19 128.971 139.159 128.96 139.123 128.96C139.12 128.96 139.105 128.96 139.098 128.953L139.226 128.967V128.971Z" fill="#1A1A1A"/>
<path d="M169.615 92.3915C167.701 93.6297 165.897 94.9889 164.171 96.4476C163.302 97.177 162.473 97.942 161.672 98.7318C161.275 99.1446 160.874 99.5431 160.502 99.9665C160.116 100.379 159.769 100.824 159.404 101.254C159.786 100.835 160.151 100.411 160.559 100.016C160.949 99.6071 161.356 99.23 161.771 98.8493C162.608 98.0914 163.462 97.3656 164.355 96.686C165.946 95.4514 167.591 94.3093 169.296 93.2775C168.856 94.9675 168.385 96.6611 167.839 98.3191C167.229 100.201 166.556 102.059 165.773 103.877C164.217 107.499 162.331 110.964 159.992 114.088C158.815 115.639 157.553 117.119 156.161 118.45C154.761 119.77 153.268 120.987 151.638 121.951C150.032 122.937 148.278 123.712 146.541 124.008C146.329 124.036 146.169 124.057 145.942 124.075L145.574 124.093H145.471L145.336 124.082C144.914 124.043 144.503 123.968 144.117 123.848C144.043 123.826 143.972 123.805 143.901 123.78C144.34 123.139 144.691 122.463 144.985 121.784C145.446 120.709 145.79 119.617 146.034 118.525L146.229 117.703L146.378 116.877C146.488 116.333 146.566 115.792 146.626 115.237C146.715 114.693 146.768 114.152 146.818 113.597C146.864 113.056 146.921 112.505 146.945 111.96L147.027 110.324L147.052 108.694C147.062 107.605 147.027 106.524 147.002 105.442C146.942 104.361 146.917 103.282 146.825 102.208C146.743 101.133 146.662 100.063 146.538 98.9916C146.417 97.9242 146.314 96.8532 146.166 95.7894C146.02 94.7185 145.882 93.6546 145.705 92.605L145.184 89.4242L144.571 86.2683C144.376 85.2187 144.121 84.1762 143.894 83.1266C143.66 82.0841 143.422 81.0416 143.153 80.0063C142.898 78.9709 142.611 77.9355 142.341 76.9037L142.068 76L141.771 76.8824C140.481 80.6858 139.456 84.5605 138.577 88.4813C137.705 92.4058 137.011 96.3622 136.55 100.379C136.312 102.379 136.174 104.4 136.089 106.424C136.004 108.456 136.015 110.494 136.171 112.544C136.32 114.586 136.607 116.65 137.188 118.688C137.479 119.71 137.851 120.727 138.365 121.706C138.769 122.481 139.261 123.236 139.878 123.908C139.843 123.922 139.804 123.933 139.768 123.944C139.701 123.958 139.623 123.983 139.559 123.983C139.524 123.993 139.495 123.993 139.47 123.993H139.439L139.343 123.986C137.695 123.915 136.061 123.559 134.53 122.89C132.999 122.225 131.549 121.311 130.223 120.211C128.891 119.123 127.682 117.859 126.569 116.504C126.006 115.831 125.478 115.12 124.964 114.405C124.446 113.69 123.953 112.942 123.475 112.195C122.525 110.69 121.657 109.125 120.849 107.527C120.03 105.937 119.268 104.314 118.57 102.656C117.861 100.998 117.209 99.3153 116.61 97.6182C116.099 96.1345 115.589 94.658 115.153 93.1601C115.401 93.3166 115.656 93.4732 115.908 93.6404C116.369 93.9393 116.819 94.2488 117.265 94.569C118.151 95.2095 119.023 95.8784 119.878 96.5793C120.721 97.2909 121.554 98.0131 122.348 98.771C122.763 99.1481 123.145 99.5431 123.539 99.9273C123.936 100.315 124.311 100.714 124.694 101.112C124.333 100.703 123.971 100.283 123.595 99.8739C123.22 99.479 122.848 99.0592 122.461 98.6714C121.696 97.8744 120.891 97.1094 120.072 96.3622C119.25 95.6186 118.407 94.8999 117.528 94.2203C117.095 93.8788 116.652 93.5443 116.199 93.217C115.748 92.9003 115.295 92.5801 114.809 92.2777L114.246 91.9219L114.377 92.6015C115.075 96.195 116.106 99.6996 117.322 103.151C117.935 104.873 118.605 106.584 119.342 108.264C120.104 109.939 120.927 111.594 121.845 113.195C123.673 116.401 125.889 119.457 128.742 121.983C130.163 123.243 131.776 124.335 133.551 125.139C135.281 125.929 137.174 126.409 139.098 126.534L139.226 126.544C139.268 126.544 139.3 126.544 139.336 126.555C139.4 126.562 139.446 126.555 139.499 126.555C139.612 126.555 139.719 126.544 139.811 126.534C140.009 126.523 140.193 126.484 140.378 126.448C140.739 126.359 141.087 126.231 141.395 126.071C141.654 125.943 141.895 125.79 142.122 125.63C142.543 125.854 142.993 126.025 143.451 126.153C144.018 126.313 144.595 126.406 145.163 126.445H145.379L145.432 126.456H145.581L145.676 126.448L146.045 126.427C146.314 126.409 146.644 126.363 146.921 126.313C149.111 125.897 151.035 124.975 152.801 123.855C154.562 122.737 156.136 121.378 157.589 119.93C159.039 118.457 160.336 116.867 161.495 115.184C162.65 113.505 163.682 111.75 164.603 109.947C165.528 108.136 166.297 106.26 166.995 104.371C167.694 102.475 168.275 100.539 168.789 98.6002C169.324 96.6647 169.686 94.6864 170.044 92.7189L170.171 92.0322L169.608 92.4022L169.615 92.3915ZM143.607 117.159L143.44 117.902C143.224 118.888 142.926 119.834 142.554 120.724C142.324 121.286 142.036 121.823 141.721 122.296C140.704 121.168 140.02 119.628 139.57 118.005C139.059 116.205 138.808 114.287 138.673 112.352C138.542 110.423 138.535 108.466 138.584 106.502C138.638 104.542 138.786 102.578 138.953 100.614C139.112 98.6393 139.336 96.6789 139.58 94.7113C139.811 92.7367 140.098 90.7798 140.388 88.8122C140.87 85.5567 141.409 82.2976 141.98 79.0421C142.139 80.4866 142.306 81.924 142.465 83.365L142.834 86.5423L143.167 89.7088L143.493 92.8719C143.607 93.9286 143.66 94.9853 143.766 96.0456C143.88 97.0916 143.94 98.1519 144.014 99.205C144.11 100.258 144.131 101.315 144.195 102.365C144.269 103.418 144.276 104.467 144.326 105.52C144.337 106.574 144.362 107.623 144.337 108.673L144.308 110.235L144.234 111.797C144.216 112.316 144.167 112.832 144.124 113.344C144.089 113.864 144.035 114.38 143.961 114.885C143.901 115.401 143.833 115.906 143.734 116.404L143.603 117.155L143.607 117.159Z" fill="#1A1A1A"/>
<path d="M178.876 120.393L177.426 121.336C176.601 121.855 175.807 122.339 174.984 122.805C174.166 123.268 173.336 123.716 172.486 124.146C171.646 124.566 170.806 124.983 169.948 125.363C169.094 125.762 168.218 126.125 167.343 126.466C166.471 126.808 165.588 127.142 164.692 127.438C164.252 127.591 163.802 127.711 163.341 127.85C162.891 127.985 162.452 128.138 161.987 128.242L160.616 128.576C160.155 128.683 159.694 128.761 159.241 128.854C158.776 128.946 158.312 129.039 157.851 129.096L156.458 129.263L157.826 128.914C158.273 128.8 158.727 128.676 159.166 128.537C159.616 128.398 160.056 128.274 160.499 128.124L161.821 127.662C162.264 127.523 162.689 127.345 163.125 127.178C163.557 127.011 163.986 126.847 164.419 126.662L165.695 126.128L166.971 125.559C167.389 125.37 167.807 125.164 168.225 124.961C168.64 124.762 169.062 124.566 169.473 124.349C170.309 123.94 171.117 123.502 171.929 123.061C172.748 122.609 173.545 122.168 174.35 121.691C174.591 121.549 174.835 121.403 175.076 121.254C173.591 121.172 172.074 121.254 170.575 121.393C168.442 121.613 166.311 122.005 164.203 122.503C162.097 122.99 160.017 123.588 157.979 124.314C155.944 125.043 153.949 125.893 152.06 126.907C151.113 127.413 150.203 127.982 149.348 128.619C148.927 128.932 148.515 129.277 148.158 129.626C147.973 129.789 147.761 130.042 147.608 130.188C147.449 130.394 147.282 130.601 147.137 130.807C146.545 131.632 146.13 132.65 146.587 133.369C146.8 133.732 147.19 134.027 147.64 134.244C148.094 134.461 148.597 134.628 149.104 134.746C150.135 134.991 151.209 135.108 152.29 135.18C153.368 135.244 154.459 135.254 155.54 135.237C157.429 135.18 159.34 135.059 161.229 134.838L161.197 134.827C160.935 134.696 160.662 134.61 160.392 134.493C159.857 134.269 159.294 134.109 158.751 133.931C158.188 133.774 157.631 133.611 157.064 133.49C156.501 133.347 155.934 133.237 155.363 133.127C154.215 132.913 153.063 132.757 151.911 132.618C150.748 132.49 149.586 132.39 148.409 132.351C149.586 132.337 150.755 132.383 151.914 132.468C153.084 132.54 154.243 132.682 155.409 132.856C155.976 132.956 156.565 133.048 157.128 133.177C157.709 133.29 158.284 133.436 158.844 133.575C159.411 133.749 159.974 133.895 160.534 134.112C160.807 134.212 161.094 134.301 161.367 134.425L162.175 134.774L162.92 135.094L162.108 135.212C159.928 135.539 157.763 135.774 155.558 135.873C154.459 135.93 153.353 135.948 152.251 135.905C151.149 135.863 150.025 135.77 148.927 135.532C148.367 135.414 147.814 135.254 147.275 135.005C146.743 134.76 146.197 134.411 145.825 133.838C145.457 133.258 145.418 132.508 145.577 131.903C145.737 131.291 146.027 130.771 146.346 130.28C146.499 130.035 146.676 129.807 146.846 129.583C147.084 129.33 147.218 129.163 147.427 128.946C147.856 128.533 148.274 128.16 148.714 127.808C149.607 127.11 150.546 126.502 151.507 125.947C153.456 124.844 155.487 123.944 157.561 123.168C159.638 122.389 161.75 121.748 163.901 121.218C166.053 120.706 168.24 120.311 170.444 120.083C172.656 119.88 174.903 119.788 177.161 120.144L178.876 120.407V120.393Z" fill="#1A1A1A"/>
<path d="M141.657 120.215C141.657 120.215 136.153 112.281 141.852 84.6672C142.462 87.108 145.496 111.441 141.657 120.215Z" fill="#1A1A1A"/>
<path d="M166.219 97.572C166.219 97.572 160.304 119.169 146.952 122.513C146.952 122.513 150.518 109.605 166.219 97.572Z" fill="#1A1A1A"/>
<path d="M118.566 98.3013C118.566 98.3013 123.819 118.82 137.17 122.168C137.17 122.168 134.264 110.327 118.566 98.3013Z" fill="#1A1A1A"/>
<path d="M150.826 128.971C150.826 128.971 160.311 122.517 172.032 122.044C172.032 122.044 159.237 129.871 150.826 128.971Z" fill="#1A1A1A"/>
<path d="M147.835 133.241C147.835 133.241 150.826 135.237 158.819 134.6C158.819 134.6 153.502 132.629 147.835 133.241Z" fill="#1A1A1A"/>
<path d="M104.073 120.393L105.527 121.336C106.352 121.855 107.146 122.339 107.969 122.805C108.787 123.268 109.617 123.716 110.46 124.146C111.307 124.566 112.144 124.983 113.001 125.363C113.856 125.762 114.731 126.125 115.61 126.466C116.482 126.808 117.365 127.142 118.261 127.438C118.708 127.591 119.151 127.711 119.612 127.85C120.058 127.985 120.501 128.138 120.966 128.242L122.337 128.576C122.798 128.683 123.259 128.761 123.712 128.854C124.177 128.946 124.634 129.039 125.102 129.096L126.495 129.263L125.127 128.914C124.68 128.8 124.226 128.676 123.787 128.537C123.34 128.398 122.897 128.274 122.454 128.124L121.129 127.662C120.689 127.523 120.264 127.345 119.828 127.178C119.395 127.011 118.967 126.847 118.534 126.662L117.258 126.128L115.982 125.559C115.564 125.37 115.146 125.164 114.728 124.961C114.313 124.762 113.891 124.566 113.48 124.349C112.643 123.94 111.835 123.502 111.017 123.061C110.198 122.609 109.4 122.168 108.603 121.691C108.362 121.549 108.117 121.403 107.876 121.254C109.361 121.172 110.875 121.254 112.378 121.393C114.511 121.613 116.641 122.005 118.75 122.503C120.856 122.99 122.936 123.588 124.974 124.314C127.009 125.043 129.004 125.893 130.893 126.907C131.839 127.413 132.75 127.982 133.605 128.619C134.026 128.932 134.437 129.277 134.795 129.626C134.983 129.789 135.192 130.042 135.345 130.188C135.497 130.394 135.671 130.601 135.816 130.807C136.405 131.632 136.823 132.65 136.366 133.369C136.153 133.732 135.756 134.027 135.313 134.244C134.859 134.461 134.356 134.628 133.846 134.746C132.814 134.991 131.74 135.108 130.663 135.18C129.589 135.244 128.494 135.254 127.413 135.237C125.523 135.18 123.613 135.059 121.724 134.838L121.756 134.827C122.018 134.696 122.291 134.61 122.56 134.493C123.096 134.269 123.656 134.109 124.205 133.931C124.765 133.774 125.321 133.611 125.889 133.49C126.452 133.347 127.019 133.237 127.59 133.127C128.735 132.913 129.89 132.757 131.042 132.618C132.201 132.49 133.367 132.39 134.544 132.351C133.367 132.337 132.197 132.383 131.038 132.468C129.869 132.54 128.71 132.682 127.544 132.856C126.97 132.956 126.385 133.048 125.825 133.177C125.243 133.29 124.669 133.436 124.109 133.575C123.542 133.749 122.979 133.895 122.415 134.112C122.146 134.212 121.862 134.301 121.589 134.425L120.778 134.774L120.037 135.094L120.849 135.212C123.025 135.539 125.194 135.774 127.398 135.873C128.497 135.93 129.603 135.948 130.705 135.905C131.808 135.863 132.931 135.77 134.03 135.532C134.59 135.414 135.143 135.254 135.681 135.005C136.213 134.76 136.759 134.411 137.131 133.838C137.5 133.258 137.542 132.508 137.379 131.903C137.22 131.291 136.929 130.771 136.61 130.28C136.458 130.035 136.28 129.807 136.11 129.583C135.873 129.33 135.738 129.163 135.526 128.946C135.104 128.533 134.686 128.16 134.242 127.808C133.349 127.11 132.407 126.502 131.446 125.947C129.504 124.844 127.469 123.944 125.396 123.168C123.322 122.389 121.21 121.748 119.059 121.218C116.907 120.706 114.72 120.311 112.516 120.083C110.304 119.88 108.057 119.788 105.799 120.144L104.077 120.407L104.073 120.393Z" fill="#1A1A1A"/>
<path d="M132.126 128.971C132.126 128.971 122.638 122.517 110.924 122.044C110.924 122.044 123.719 129.871 132.126 128.971Z" fill="#1A1A1A"/>
<path d="M135.118 133.241C135.118 133.241 132.127 135.237 124.134 134.6C124.134 134.6 129.458 132.629 135.118 133.241Z" fill="#1A1A1A"/>
</g>
<rect x="1" y="1" width="300" height="234" stroke="#D9D9D9"/>
<defs>
<clipPath id="clip0_245_582">
<rect width="196" height="84" fill="white" transform="translate(53 76)"/>
</clipPath>
</defs>
</svg>
