<svg width="302" height="236" viewBox="0 0 302 236" fill="none" xmlns="http://www.w3.org/2000/svg">
<path d="M98.1849 104.186L94.8593 117.572L90.6357 121.208L90.6222 121.217C90.523 121.284 90.4052 121.319 90.2808 121.319L89.4784 121.292C89.2749 121.292 89.0647 121.188 88.925 121.015C88.7905 120.849 88.7367 120.641 88.7787 120.446L96.0521 91.087H97.9342L106.067 112.143L110.353 94.8236L114.854 91.2884C114.984 91.1625 115.159 91.0921 115.35 91.0921L116.141 91.087C116.411 91.087 116.676 91.2196 116.847 91.4427C117.012 91.6541 117.071 91.9109 117.01 92.1474L109.816 121.354L105.28 121.366L98.1849 104.186Z" fill="#050505"/>
<path d="M97.7425 91.3655H96.2705L89.0512 120.505C88.9991 120.75 89.2262 121.014 89.4902 121.014L90.2825 121.04C90.3514 121.04 90.4154 121.022 90.4675 120.987L94.6121 117.42L98.121 103.297L105.47 121.087L109.601 121.077L116.741 92.077C116.829 91.7397 116.514 91.3639 116.146 91.3639H116.143L115.35 91.3689C115.227 91.3689 115.116 91.4142 115.037 91.4964L110.598 94.983L106.122 113.065L97.7425 91.3655Z" fill="#050505"/>
<path d="M98.1259 90.8085L98.264 91.1642L106.01 111.216L110.06 94.8488L110.105 94.6643L110.255 94.5468L114.671 91.0787C114.85 90.9092 115.089 90.8152 115.347 90.8135L116.146 90.8068C116.497 90.8068 116.842 90.9797 117.069 91.2699C117.286 91.5485 117.364 91.8924 117.283 92.2079L110.035 121.628L109.599 121.629L105.468 121.641L105.093 121.643L98.2505 105.075L95.1503 117.552L95.1083 117.723L90.8292 121.406L90.8039 121.428L90.777 121.446C90.6324 121.544 90.4591 121.596 90.2791 121.596H90.2589L89.4751 121.569C89.1841 121.566 88.8965 121.423 88.7064 121.188C88.518 120.955 88.444 120.663 88.5029 120.388L88.5046 120.379L88.5062 120.371L95.729 91.2313L95.8333 90.8085H98.1259Z" fill="#050505"/>
<path d="M149.424 121.357C150.872 121.357 152.024 120.446 152.288 119.099L155.028 107.129C155.175 106.396 154.954 105.601 154.423 104.95C153.856 104.255 153.022 103.835 152.187 103.829L142.023 103.78C141.912 103.778 141.794 103.716 141.715 103.616C141.647 103.53 141.619 103.429 141.639 103.347L143.348 96.077C143.385 95.9176 143.583 95.7716 143.762 95.7716L157.523 95.8018C157.938 95.8018 158.268 95.5216 158.325 95.1223L158.602 93.1709C158.67 92.686 158.502 92.1726 158.145 91.7649C157.768 91.3337 157.248 91.087 156.715 91.087H142.393C140.741 91.087 139.444 92.077 139.086 93.6105L136.465 104.867C136.304 105.567 136.499 106.33 137 106.961C137.535 107.636 138.335 108.042 139.14 108.047L148.841 108.062C148.953 108.064 149.067 108.124 149.146 108.223C149.215 108.31 149.244 108.408 149.229 108.478L147.207 116.018C147.134 116.351 146.85 116.565 146.482 116.565H138.596C138.448 116.565 138.305 116.602 138.182 116.671L133.441 119.337L133.422 119.349C133.308 119.426 133.225 119.545 133.192 119.688C133.109 120.062 133.215 120.467 133.481 120.797C133.764 121.148 134.184 121.356 134.605 121.356H149.424V121.357Z" fill="#050505"/>
<path d="M156.717 91.3656H142.394C140.882 91.3656 139.684 92.28 139.358 93.6726L136.737 104.929C136.426 106.282 137.674 107.76 139.14 107.768L148.845 107.784C149.238 107.789 149.578 108.183 149.499 108.55L147.481 116.077C147.38 116.54 146.983 116.844 146.483 116.844H138.598C138.497 116.844 138.403 116.867 138.32 116.914L133.575 119.582C133.518 119.621 133.478 119.68 133.461 119.75C133.319 120.388 133.913 121.081 134.601 121.081H149.398C149.405 121.081 149.412 121.081 149.418 121.081C150.732 121.081 151.77 120.27 152.012 119.039L154.751 107.077C155.036 105.649 153.713 104.121 152.182 104.107L142.016 104.059C141.619 104.054 141.277 103.651 141.365 103.283L143.074 96.0133C143.141 95.728 143.449 95.4948 143.758 95.4948H143.76L157.519 95.5267H157.521C157.797 95.5267 158.009 95.3488 158.047 95.0854L158.325 93.1357C158.448 92.2582 157.637 91.3656 156.717 91.3656Z" fill="#050505"/>
<path d="M156.717 90.8085C157.329 90.8085 157.926 91.0904 158.357 91.582C158.767 92.0518 158.958 92.6441 158.88 93.2112L158.602 95.1609C158.525 95.7012 158.083 96.0787 157.521 96.0787L143.762 96.0468C143.706 96.0468 143.631 96.1055 143.619 96.1374L141.912 103.401C141.92 103.436 141.979 103.498 142.021 103.5L152.191 103.549C153.104 103.555 154.019 104.013 154.638 104.772C155.222 105.488 155.464 106.367 155.301 107.181L155.299 107.19L155.297 107.196L152.561 119.149C152.264 120.634 151.005 121.633 149.422 121.633H134.605C134.1 121.633 133.599 121.384 133.264 120.97C132.945 120.572 132.818 120.084 132.921 119.618C132.97 119.409 133.092 119.232 133.267 119.116L133.286 119.104L133.304 119.094L138.049 116.426C138.214 116.334 138.405 116.285 138.6 116.285H146.485C146.724 116.285 146.892 116.163 146.938 115.958L146.944 115.931L148.954 108.435C148.946 108.399 148.885 108.337 148.847 108.337L139.14 108.322C138.253 108.317 137.372 107.872 136.785 107.131C136.231 106.433 136.016 105.584 136.198 104.802L138.818 93.5451C139.2 91.9075 140.638 90.8068 142.396 90.8068H156.717V90.8085Z" fill="#050505"/>
<path d="M218.344 121.425C218.506 121.425 218.659 121.368 218.773 121.265L218.78 121.258L223.558 116.331L228.149 96.0082H237.484L238.611 91.087H215.397C214.129 91.087 213.152 91.8958 212.958 93.0988L212.233 96.0082H222.379L216.432 120.513C216.388 120.723 216.447 120.946 216.593 121.126C216.746 121.314 216.973 121.425 217.202 121.425H218.344Z" fill="#050505"/>
<path d="M238.263 91.3656H215.397C214.27 91.3656 213.397 92.087 213.232 93.1542L212.59 95.7314H222.734L216.704 120.571C216.645 120.847 216.903 121.146 217.202 121.146H218.344C218.438 121.146 218.524 121.114 218.588 121.057L223.304 116.193L227.929 95.7297H237.264L238.263 91.3656Z" fill="#050505"/>
<path d="M238.963 90.8085L237.706 96.2867H228.373L223.848 116.317L223.814 116.47L223.705 116.582L218.988 121.446L218.975 121.462L218.96 121.475C218.793 121.623 218.575 121.705 218.344 121.705H217.202C216.889 121.705 216.581 121.554 216.376 121.302C216.176 121.057 216.097 120.748 216.159 120.458L216.163 120.441L222.025 96.2884H211.875L212.682 93.0451C212.899 91.728 214.01 90.8102 215.394 90.8102H238.963V90.8085Z" fill="#050505"/>
<path d="M128.23 121.361L129.479 116.572L119.796 116.589L122.068 108.007H128.245L132.42 105.661L132.43 105.654C132.532 105.584 132.607 105.475 132.64 105.342L132.8 104.619C132.838 104.45 132.793 104.268 132.677 104.124C132.558 103.975 132.376 103.886 132.193 103.886H123.141L125.126 95.8472H134.571L135.796 91.2951L122.963 91.3203C121.128 91.3253 119.691 92.4897 119.384 94.2196L112.614 121.356L118.915 121.364H128.23V121.361Z" fill="#050505"/>
<path d="M135.434 91.5719L122.966 91.5971C121.266 91.6005 119.939 92.6743 119.658 94.275L112.972 121.076L118.916 121.084H128.014L129.12 116.852L119.434 116.869L121.848 107.757L121.856 107.732H128.172L132.273 105.428C132.322 105.394 132.356 105.344 132.371 105.285L132.531 104.56C132.573 104.371 132.398 104.164 132.196 104.164H122.783L122.86 103.861L124.908 95.5686H134.358L135.434 91.5719Z" fill="#050505"/>
<path d="M136.161 91.0149L134.786 96.1223H125.347L123.498 103.606H132.194C132.462 103.606 132.724 103.735 132.896 103.95C133.065 104.161 133.129 104.428 133.074 104.678L132.914 105.403L132.911 105.419C132.862 105.609 132.748 105.775 132.589 105.884L132.569 105.899L132.548 105.911L128.447 108.215L128.319 108.287H122.284L120.158 116.312L129.839 116.295L128.553 121.225L128.443 121.641H118.915L112.258 121.631L119.111 94.1592C119.448 92.2985 120.992 91.0451 122.963 91.0401L135.432 91.0149H136.161Z" fill="#050505"/>
<path d="M179.144 121.425L186.621 91.077H180.173L177.204 103.037L169.842 103.282L165.679 105.619L165.657 105.632C165.546 105.71 165.472 105.824 165.45 105.943L165.285 106.673C165.25 106.844 165.299 107.023 165.416 107.168C165.538 107.317 165.714 107.401 165.904 107.401L176.254 107.181L172.631 121.425H179.144Z" fill="#050505"/>
<path d="M186.266 91.3538H180.392L177.425 103.305L169.919 103.555L165.815 105.859C165.766 105.893 165.733 105.943 165.723 106.002L165.559 106.726C165.521 106.916 165.693 107.122 165.899 107.122L176.614 106.894L172.989 121.146H178.929L186.266 91.3538Z" fill="#050505"/>
<path d="M186.976 90.7984L179.362 121.701H172.269L175.891 107.465L165.908 107.678H165.896C165.627 107.678 165.373 107.555 165.198 107.342C165.026 107.134 164.958 106.869 165.01 106.616L165.013 106.602L165.174 105.886C165.215 105.688 165.329 105.515 165.497 105.399L165.518 105.384L165.539 105.371L169.644 103.067L169.763 103L169.899 102.995L176.984 102.76L179.85 91.2162L179.955 90.7934H186.976V90.7984Z" fill="#050505"/>
<path d="M155.138 121.423L159.869 121.408C160.937 121.404 161.789 120.725 161.984 119.732L169.142 90.9243L162.596 90.9494L155.138 121.423Z" fill="#050505"/>
<path d="M168.786 91.2045L162.814 91.228L155.492 121.144L159.868 121.129C160.804 121.126 161.541 120.542 161.713 119.664L168.786 91.2045Z" fill="#050505"/>
<path d="M169.499 90.6458L162.258 119.787C162.029 120.92 161.07 121.681 159.869 121.686L155.494 121.701L154.782 121.703L154.952 121.014L162.274 91.0971L162.377 90.6743L169.499 90.6458Z" fill="#050505"/>
<path d="M84.8612 121.311H85.0782L85.1303 121.099C85.1303 121.099 89.978 101.532 91.3791 95.8505C91.7374 94.3975 91.5894 93.2431 90.9401 92.4142C90.0117 91.2313 88.3262 91.0552 87.4045 91.0552C87.1454 91.0552 86.9654 91.0703 86.9133 91.0736C86.6408 91.0736 82.2052 91.077 78.6039 91.077C76.7453 91.077 75.1086 91.077 74.3651 91.0736C71.5544 91.0736 70.9203 93.3773 70.9119 93.4059L69.8825 97.6609L70.197 97.6962C70.2374 97.7012 70.308 97.7062 70.4073 97.7062C71.1154 97.7062 73.075 97.4009 76.0707 94.5888C76.794 94.5837 80.9033 94.5602 83.3137 94.5602C84.0117 94.5602 84.5147 94.7498 84.8107 95.1223C85.3221 95.7683 85.0866 96.7834 85.0849 96.7935L80.1312 116.831H70.4931C70.1869 116.831 69.9666 116.767 69.8404 116.641L69.8169 116.618L69.7933 116.584C69.6537 116.386 69.7008 116.079 69.7344 115.965L73.1507 102.292H68.7605L65.0381 117.641C64.9103 118.163 64.6916 119.478 65.4284 120.413C65.9263 121.045 66.7454 121.364 67.8657 121.364C70.8866 121.364 84.7233 121.311 84.8612 121.311Z" fill="#050505"/>
<path d="M87.4061 91.3337C87.1134 91.3337 86.9284 91.3538 86.9284 91.3538C86.9284 91.3538 82.3229 91.3572 78.6056 91.3572C76.7469 91.3572 75.1103 91.3572 74.3803 91.3538H74.3668C71.7378 91.3538 71.1861 93.473 71.1861 93.473L70.229 97.4193C70.2643 97.4227 70.3232 97.4277 70.4073 97.4277C71.0229 97.4277 72.9472 97.166 75.958 94.3119C75.958 94.3119 80.6459 94.2817 83.312 94.2817C85.9814 94.2817 85.354 96.8606 85.354 96.8606L80.3482 117.109H70.4914C70.0624 117.109 69.8 116.995 69.6419 116.839H69.5393L69.5629 116.745C69.3106 116.388 69.4619 115.898 69.4619 115.898L72.7924 102.569H68.9792L65.3089 117.705C65.0348 118.822 64.9574 121.084 67.864 121.084C70.922 121.084 84.8612 121.03 84.8612 121.03C84.8612 121.03 89.7089 101.466 91.11 95.7851C92.1159 91.7112 88.7013 91.3337 87.4061 91.3337Z" fill="#050505"/>
<path d="M87.4061 90.7783C88.3784 90.7783 90.158 90.9696 91.1605 92.2431C91.8653 93.1408 92.0318 94.3773 91.6517 95.9176C90.2656 101.533 85.4499 120.97 85.4028 121.166L85.2985 121.587L84.8646 121.589C84.7249 121.589 70.8883 121.643 67.8657 121.643C66.6563 121.643 65.7631 121.287 65.2097 120.584C64.399 119.554 64.6311 118.136 64.769 117.576L68.5419 102.015H73.5107L73.3374 102.705L70.007 116.034L70.0036 116.049L69.9985 116.062C69.9834 116.111 69.9514 116.326 70.0221 116.426L70.0305 116.44L70.0372 116.446C70.1062 116.513 70.2761 116.555 70.4931 116.555H79.9126L84.8124 96.7314C84.8679 96.5032 84.947 95.7498 84.5921 95.2985C84.3515 94.9948 83.9209 94.8404 83.312 94.8404C81.0042 94.8404 77.1355 94.8639 76.1801 94.869C75.0497 95.9159 72.5418 97.9864 70.4073 97.9864C70.3215 97.9864 70.2408 97.9831 70.1667 97.9747L69.5377 97.9042L69.6857 97.2901L70.6428 93.3438L70.6461 93.3337C70.8749 92.4562 71.9464 90.7968 74.3668 90.7984H74.3837C75.0279 90.8001 76.4475 90.8018 78.6073 90.8018C82.1632 90.8018 86.5298 90.7984 86.9049 90.7984C86.9739 90.7917 87.1538 90.7783 87.4061 90.7783Z" fill="#050505"/>
<path d="M203.037 121.31H203.254L203.307 121.099C203.307 121.099 208.154 101.532 209.556 95.8505C209.914 94.3975 209.766 93.2431 209.116 92.4142C208.188 91.2313 206.503 91.0552 205.581 91.0552C205.322 91.0552 205.142 91.0703 205.089 91.0736C204.817 91.0736 200.382 91.077 196.78 91.077C194.922 91.077 193.285 91.077 192.541 91.0736C189.731 91.0736 189.097 93.3773 189.088 93.4059L188.057 97.6593L188.372 97.6945C188.412 97.6995 188.483 97.7045 188.582 97.7045C189.29 97.7045 191.25 97.3992 194.245 94.5871C194.969 94.582 199.078 94.5585 201.488 94.5585C202.186 94.5585 202.689 94.7481 202.985 95.1207C203.497 95.7666 203.261 96.7817 203.259 96.7918L198.306 116.829H188.668C188.362 116.829 188.141 116.765 188.015 116.639L187.991 116.616L187.968 116.582C187.828 116.384 187.875 116.077 187.909 115.963L191.327 102.29H186.935L183.213 117.638C183.085 118.159 182.866 119.475 183.601 120.409C184.099 121.042 184.918 121.361 186.039 121.361C189.063 121.364 202.898 121.31 203.037 121.31Z" fill="#050505"/>
<path d="M205.582 91.3337C205.288 91.3337 205.105 91.3538 205.105 91.3538C205.105 91.3538 200.499 91.3572 196.782 91.3572C194.923 91.3572 193.287 91.3572 192.558 91.3538H192.543C189.914 91.3538 189.362 93.473 189.362 93.473L188.405 97.4193C188.441 97.4227 188.499 97.4277 188.584 97.4277C189.199 97.4277 191.123 97.166 194.134 94.3119C194.134 94.3119 198.822 94.2817 201.488 94.2817C204.158 94.2817 203.53 96.8606 203.53 96.8606L198.525 117.109H188.669C188.24 117.109 187.978 116.995 187.82 116.839H187.717L187.741 116.745C187.49 116.388 187.64 115.898 187.64 115.898L190.97 102.569H187.156L183.485 117.705C183.211 118.822 183.134 121.084 186.04 121.084C189.098 121.084 203.037 121.03 203.037 121.03C203.037 121.03 207.885 101.463 209.286 95.7817C210.292 91.7112 206.878 91.3337 205.582 91.3337Z" fill="#050505"/>
<path d="M205.582 90.7783C206.555 90.7783 208.334 90.9696 209.337 92.2431C210.041 93.1408 210.207 94.3773 209.828 95.9176C208.442 101.533 203.626 120.97 203.579 121.166L203.475 121.587L203.041 121.589C202.901 121.589 189.065 121.643 186.04 121.643C184.831 121.643 183.938 121.287 183.384 120.584C182.574 119.554 182.806 118.136 182.944 117.576L186.616 102.44L186.718 102.015H191.687L191.514 102.705L188.181 116.034L188.18 116.042L188.175 116.057C188.153 116.133 188.129 116.332 188.197 116.428L188.205 116.441L188.212 116.448C188.281 116.515 188.451 116.557 188.668 116.557H198.087L202.989 96.7331C203.044 96.5049 203.123 95.7515 202.768 95.3002C202.528 94.9965 202.097 94.8421 201.488 94.8421C199.18 94.8421 195.312 94.8656 194.355 94.8706C193.223 95.9176 190.717 97.9881 188.582 97.9881C188.496 97.9881 188.415 97.9847 188.341 97.9764L187.712 97.9059L187.86 97.2918L188.817 93.3455L188.819 93.3404L188.821 93.3354C189.05 92.4579 190.121 90.8001 192.541 90.8001H192.557C193.201 90.8018 194.622 90.8035 196.78 90.8035C200.336 90.8035 204.703 90.8001 205.078 90.8001C205.15 90.7917 205.328 90.7783 205.582 90.7783Z" fill="#050505"/>
<path d="M143.715 127.497C144.169 127.497 144.33 127.725 144.25 128.154L142.805 134.534H146.097C147.407 134.534 147.863 134.408 148.665 133.598L154.392 127.851C154.66 127.597 154.847 127.497 155.383 127.497H159.396C159.904 127.497 159.878 127.926 159.637 128.18L153.026 134.534C152.33 135.191 151.795 135.723 151.26 136.104C151.822 136.534 152.305 137.141 152.759 137.927L156.694 144.458C156.801 144.661 156.72 145.219 156.105 145.219H152.01C151.502 145.219 151.368 145.118 151.235 144.864L147.864 138.915C147.435 138.18 146.981 137.979 145.669 137.979H142.029L140.557 144.561C140.45 144.992 140.182 145.219 139.728 145.219H136.25C135.796 145.219 135.607 144.99 135.715 144.561L139.382 128.156C139.489 127.725 139.784 127.499 140.238 127.499H143.715V127.497Z" fill="#050505"/>
<path d="M182.089 127.497C182.57 127.497 182.759 127.725 182.651 128.154L182.009 130.99C181.901 131.447 181.633 131.673 181.179 131.673H169.432C167.158 131.673 166.407 132.255 165.899 134.458H180.377C180.858 134.458 181.046 134.661 180.938 135.116L180.404 137.445C180.323 137.901 180.029 138.103 179.575 138.103H165.07C164.937 138.76 164.883 139.217 164.883 139.596C164.883 140.76 165.553 141.064 167.319 141.064H179.067C179.522 141.064 179.736 141.267 179.628 141.722L178.986 144.557C178.878 144.989 178.611 145.215 178.13 145.215H166.328C161.886 145.215 159.96 144 159.96 140.962C159.96 140.252 160.041 139.443 161.218 134.176C162.288 129.316 164.804 127.493 170.289 127.493H182.089V127.497Z" fill="#050505"/>
<path d="M207.352 127.497C207.806 127.497 207.995 127.725 207.914 128.154L207.244 131.116C207.137 131.547 206.869 131.774 206.388 131.774H198.36L195.47 144.559C195.389 144.99 195.095 145.217 194.641 145.217H191.189C190.708 145.217 190.52 144.989 190.627 144.559L193.49 131.774H185.435C184.979 131.774 184.792 131.545 184.9 131.116L185.569 128.154C185.65 127.723 185.917 127.497 186.398 127.497H207.352Z" fill="#050505"/>
<path d="M226.539 127.495C230.982 127.495 232.908 128.71 232.908 131.748C232.908 132.458 232.827 133.267 231.649 138.534C230.579 143.395 228.063 145.217 222.578 145.217H214.228C209.786 145.217 207.86 144.002 207.86 140.964C207.86 140.254 207.941 139.445 209.118 134.178C210.188 129.317 212.704 127.495 218.189 127.495H226.539ZM212.891 139.572C212.891 140.737 213.56 141.066 215.354 141.066H223.328C225.629 141.066 226.353 140.458 226.861 138.18C227.824 133.977 227.878 133.522 227.878 133.141C227.878 131.977 227.209 131.673 225.443 131.673H217.441C215.14 131.673 214.417 132.255 213.909 134.534C212.945 138.737 212.891 139.191 212.891 139.572Z" fill="#050505"/>
<path d="M122.26 145.187H124.213C124.576 145.187 124.891 144.933 124.968 144.579L128.67 128.334C128.775 127.854 128.408 127.401 127.917 127.401H125.962C125.599 127.401 125.284 127.654 125.207 128.008L121.505 144.254C121.402 144.732 121.767 145.187 122.26 145.187Z" fill="#050505"/>
<path d="M110.57 145.22H112.186C112.55 145.22 112.864 144.967 112.941 144.613L116.61 128.368C116.714 127.888 116.347 127.435 115.857 127.435H114.24C113.877 127.435 113.562 127.688 113.487 128.042L109.818 144.287C109.712 144.765 110.077 145.22 110.57 145.22Z" fill="#050505"/>
<path d="M98.8794 145.254H100.16C100.523 145.254 100.837 145 100.915 144.646L104.55 128.401C104.654 127.921 104.287 127.468 103.794 127.468H102.515C102.151 127.468 101.837 127.722 101.759 128.076L98.1243 144.321C98.0215 144.801 98.3865 145.254 98.8794 145.254Z" fill="#050505"/>
<path d="M87.1892 145.287H88.1328C88.4961 145.287 88.8107 145.034 88.888 144.68L92.4894 128.435C92.5936 127.955 92.2269 127.502 91.7358 127.502H90.7904C90.4271 127.502 90.1126 127.755 90.0352 128.109L86.4339 144.354C86.3313 144.833 86.6963 145.287 87.1892 145.287Z" fill="#050505"/>
<path d="M75.4989 145.321H76.1061C76.4694 145.321 76.784 145.067 76.8614 144.713L80.429 128.468C80.5333 127.988 80.1666 127.536 79.6737 127.536H79.0665C78.7032 127.536 78.3887 127.789 78.3129 128.143L74.7453 144.388C74.641 144.866 75.006 145.321 75.4989 145.321Z" fill="#050505"/>
<path d="M63.8086 145.354H64.0794C64.4427 145.354 64.7572 145.101 64.8346 144.747L68.3686 128.502C68.4729 128.022 68.1062 127.569 67.615 127.569H67.3426C66.9792 127.569 66.6647 127.822 66.5873 128.176L63.055 144.42C62.9507 144.9 63.3157 145.354 63.8086 145.354Z" fill="#050505"/>
<rect x="1" y="1" width="300" height="234" stroke="#D9D9D9"/>
</svg>
