<svg width="227" height="28" viewBox="0 0 227 28" fill="none" xmlns="http://www.w3.org/2000/svg">
<g clip-path="url(#clip0_245_324)">
<path d="M13.4679 2.65638V0.612823H0V27.4084H13.4679V25.3649H2.27722V14.8625H13.4679V12.8232H2.27722V2.65638H13.4679Z" fill="#050505"/>
<path d="M43.0888 0.612823L32.0171 22.7138L21.0813 0.612823H19.2374V27.4084H21.5146V6.2464L32.0171 27.4084L42.596 6.26764V27.4084H44.8732V0.612823H43.0888Z" fill="#050505"/>
<path d="M66.0522 14.8837C65.3342 14.3484 64.34 13.9618 63.0697 13.7238C64.3528 13.1503 65.262 12.547 65.7973 11.9182C66.7532 10.8348 67.2333 9.42007 67.2333 7.67816C67.2333 5.26074 66.3793 3.43386 64.6799 2.20178C63.2269 1.14389 61.3703 0.612823 59.1058 0.612823H52.0957V27.4084H58.4558C60.4186 27.4084 61.8844 27.3022 62.853 27.094C64.5949 26.7287 65.9545 25.9427 66.9359 24.7361C67.9428 23.4955 68.4484 21.9703 68.4484 20.1646C68.4484 17.8237 67.6496 16.0605 66.0522 14.8837ZM54.3729 2.65638H57.6146C59.2078 2.65638 60.3081 2.69886 60.9114 2.79233C62.1138 2.96227 63.0655 3.38713 63.758 4.06689C64.6459 4.95909 65.092 6.14019 65.092 7.61868C65.092 9.45405 64.4462 10.8518 63.1504 11.8205C62.152 12.581 60.5758 12.9591 58.4175 12.9591H54.3729V2.65638ZM62.4239 25.0505C61.6634 25.2629 60.2317 25.3649 58.1244 25.3649H54.3729V15.0027H59.5349C61.7229 15.0027 63.3331 15.3595 64.3655 16.0818C65.5976 16.9442 66.2094 18.3038 66.2094 20.1646C66.2094 22.7435 64.9476 24.3707 62.4239 25.0505Z" fill="#050505"/>
<path d="M76.083 25.1312V0.612823H73.8058V27.4084H85.7994V25.1312H76.083Z" fill="#050505"/>
<path d="M100.189 0.612823H97.6954L87.1548 27.4084H89.4702L92.3168 20.3813H105.254L107.866 27.4084H110.399L100.189 0.612823ZM93.141 18.2995L98.8553 3.65478L104.429 18.2995H93.141Z" fill="#050505"/>
<path d="M131.811 0.612823H113.028V2.65638H127.788L111.202 27.4084H130.027V25.3649H115.208L131.811 0.612823Z" fill="#050505"/>
<path d="M149.145 2.65638V0.612823H135.677V27.4084H149.145V25.3649H137.955V14.8625H149.145V12.8232H137.955V2.65638H149.145Z" fill="#050505"/>
<path d="M177.075 4.09238C174.475 1.41154 171.178 0.0690002 167.185 0.0690002C163.191 0.0690002 159.826 1.31807 157.175 3.80772C154.171 6.65 152.672 10.0786 152.672 14.102C152.672 18.1253 154.065 21.2013 156.852 23.9076C159.614 26.5884 163.004 27.931 167.023 27.931C171.042 27.931 174.191 26.5757 176.952 23.8694C179.688 21.1885 181.052 17.9214 181.052 14.0595C181.052 10.1975 179.726 6.74347 177.075 4.09238ZM172.249 19.6463C170.749 21.1503 168.965 21.898 166.904 21.898C164.844 21.898 162.949 21.1376 161.475 19.6081C160.03 18.0786 159.304 16.2177 159.304 14.0212C159.304 11.8247 160.03 9.85341 161.475 8.35367C162.923 6.84969 164.746 6.10194 166.943 6.10194C169.139 6.10194 170.898 6.86243 172.291 8.39191C173.736 9.92139 174.462 11.8375 174.462 14.1402C174.462 16.3112 173.723 18.1466 172.249 19.6463Z" fill="#050505"/>
<path d="M201.233 0.591583V15.6697L193.322 2.4567V13.9958L201.233 27.4084H207.746V0.591583H201.233Z" fill="#050505"/>
<path d="M227 5.85978V0.591583H211.646V27.4084H227V22.1402H218.159V16.5916H227V11.3277H218.159V5.85978H227Z" fill="#050505"/>
<path d="M191.227 0.591583V27.7441H184.701V6.59903H182.437V0.591583H191.227Z" fill="#FF0000"/>
</g>
<defs>
<clipPath id="clip0_245_324">
<rect width="227" height="27.862" fill="white" transform="translate(0 0.0690002)"/>
</clipPath>
</defs>
</svg>
