<svg width="39" height="38" viewBox="0 0 39 38" fill="none" xmlns="http://www.w3.org/2000/svg">
<mask id="mask0_245_829" style="mask-type:alpha" maskUnits="userSpaceOnUse" x="0" y="0" width="39" height="38">
<rect x="0.333374" width="38" height="38" fill="#D9D9D9"/>
</mask>
<g mask="url(#mask0_245_829)">
<path d="M9.27922 15.8729L12.3667 17.1791C12.7362 16.4403 13.1188 15.7278 13.5146 15.0416C13.9105 14.3555 14.3459 13.6694 14.8209 12.9833L12.6042 12.5479L9.27922 15.8729ZM14.9001 19.1583L19.4126 23.6312C20.5209 23.209 21.7084 22.5625 22.9751 21.6917C24.2417 20.8208 25.4292 19.8312 26.5376 18.7229C28.3848 16.8757 29.8296 14.8239 30.8719 12.5677C31.9143 10.3114 32.3695 8.23332 32.2376 6.33332C30.3376 6.20137 28.2528 6.65658 25.9834 7.69894C23.7139 8.7413 21.6556 10.1861 19.8084 12.0333C18.7001 13.1417 17.7105 14.3291 16.8396 15.5958C15.9688 16.8625 15.3223 18.05 14.9001 19.1583ZM21.9459 16.5854C21.3389 15.9785 21.0355 15.233 21.0355 14.3489C21.0355 13.4649 21.3389 12.7194 21.9459 12.1125C22.5528 11.5055 23.3049 11.2021 24.2021 11.2021C25.0994 11.2021 25.8514 11.5055 26.4584 12.1125C27.0653 12.7194 27.3688 13.4649 27.3688 14.3489C27.3688 15.233 27.0653 15.9785 26.4584 16.5854C25.8514 17.1923 25.0994 17.4958 24.2021 17.4958C23.3049 17.4958 22.5528 17.1923 21.9459 16.5854ZM22.698 29.2916L26.023 25.9667L25.5876 23.75C24.9014 24.225 24.2153 24.6538 23.5292 25.0364C22.8431 25.4191 22.1306 25.7951 21.3917 26.1646L22.698 29.2916ZM35.0876 3.44373C35.5889 6.63679 35.2789 9.74408 34.1573 12.7656C33.0358 15.7871 31.1028 18.6701 28.3584 21.4146L29.1501 25.3333C29.2556 25.8611 29.2292 26.3757 29.0709 26.8771C28.9126 27.3785 28.6487 27.8139 28.2792 28.1833L21.6292 34.8333L18.3042 27.0354L11.5355 20.2666L3.73756 16.9417L10.348 10.2917C10.7174 9.92221 11.1594 9.65832 11.674 9.49998C12.1886 9.34165 12.7098 9.31526 13.2376 9.42082L17.1563 10.2125C19.9008 7.46804 22.7771 5.52846 25.7855 4.39373C28.7938 3.25901 31.8945 2.94235 35.0876 3.44373ZM6.54797 25.2937C7.47158 24.3701 8.59971 23.9017 9.93235 23.8885C11.265 23.8753 12.3931 24.3305 13.3167 25.2542C14.2403 26.1778 14.6955 27.3059 14.6823 28.6385C14.6692 29.9712 14.2008 31.0993 13.2771 32.0229C12.6174 32.6826 11.5157 33.25 9.97193 33.725C8.42818 34.2 6.29728 34.6222 3.57922 34.9916C3.94867 32.2736 4.37089 30.1427 4.84589 28.5989C5.32089 27.0552 5.88825 25.9535 6.54797 25.2937ZM8.80422 27.5104C8.54033 27.7743 8.27645 28.2559 8.01256 28.9552C7.74867 29.6545 7.56395 30.3604 7.45839 31.0729C8.17089 30.9673 8.87679 30.7892 9.5761 30.5385C10.2754 30.2878 10.757 30.0305 11.0209 29.7666C11.3376 29.45 11.5091 29.0673 11.5355 28.6187C11.5619 28.1701 11.4167 27.7875 11.1001 27.4708C10.7834 27.1542 10.4008 27.0024 9.95214 27.0156C9.50353 27.0288 9.12089 27.1937 8.80422 27.5104Z" fill="#FF0000"/>
</g>
</svg>
