<svg width="38" height="38" viewBox="0 0 38 38" fill="none" xmlns="http://www.w3.org/2000/svg">
<mask id="mask0_245_821" style="mask-type:alpha" maskUnits="userSpaceOnUse" x="0" y="0" width="38" height="38">
<rect width="38" height="38" fill="#D9D9D9"/>
</mask>
<g mask="url(#mask0_245_821)">
<path d="M25.3333 17.4166C25.7819 17.4166 26.1579 17.2649 26.4614 16.9614C26.7649 16.6579 26.9166 16.2819 26.9166 15.8333C26.9166 15.3847 26.7649 15.0086 26.4614 14.7052C26.1579 14.4017 25.7819 14.25 25.3333 14.25C24.8847 14.25 24.5086 14.4017 24.2052 14.7052C23.9017 15.0086 23.75 15.3847 23.75 15.8333C23.75 16.2819 23.9017 16.6579 24.2052 16.9614C24.5086 17.2649 24.8847 17.4166 25.3333 17.4166ZM12.6666 14.25H20.5833V11.0833H12.6666V14.25ZM7.12496 33.25C6.22774 30.2416 5.34371 27.2399 4.47288 24.2448C3.60204 21.2496 3.16663 18.1819 3.16663 15.0416C3.16663 12.6138 4.01107 10.5555 5.69996 8.86663C7.38885 7.17774 9.44718 6.33329 11.875 6.33329H19.7916C20.5569 5.33051 21.4871 4.55204 22.5823 3.99788C23.6774 3.44371 24.8583 3.16663 26.125 3.16663C26.7847 3.16663 27.3454 3.39753 27.8072 3.85933C28.2691 4.32114 28.5 4.8819 28.5 5.54163C28.5 5.69996 28.4802 5.85829 28.4406 6.01663C28.401 6.17496 28.3548 6.3201 28.302 6.45204C28.1965 6.74232 28.0975 7.0392 28.0052 7.34267C27.9128 7.64614 27.8402 7.95621 27.7875 8.27288L31.3895 11.875H34.8333V22.9187L30.3604 24.3833L27.7083 33.25H19V30.0833H15.8333V33.25H7.12496ZM9.49996 30.0833H12.6666V26.9166H22.1666V30.0833H25.3333L27.7875 21.9291L31.6666 20.6229V15.0416H30.0833L24.5416 9.49996C24.5416 8.97218 24.5746 8.4642 24.6406 7.976C24.7066 7.48781 24.8055 6.99302 24.9375 6.49163C24.1722 6.70274 23.4993 7.06558 22.9187 7.58017C22.3382 8.09475 21.9159 8.73468 21.652 9.49996H11.875C10.3444 9.49996 9.03815 10.0409 7.95621 11.1229C6.87426 12.2048 6.33329 13.5111 6.33329 15.0416C6.33329 17.6277 6.68954 20.1545 7.40204 22.6218C8.11454 25.0892 8.81385 27.5763 9.49996 30.0833Z" fill="#FF0000"/>
</g>
</svg>
